<svg id="svg" version="1.1" xmlns="http://www.w3.org/2000/svg" xmlns:xlink="http://www.w3.org/1999/xlink" width="400" height="82.52853380158032" viewBox="0, 0, 400,82.52853380158032"><g id="svgg"><path id="path0" d="M295.426 17.255 C 295.245 17.393,295.195 17.500,295.313 17.500 C 295.429 17.500,295.636 17.387,295.774 17.250 C 296.093 16.931,295.851 16.934,295.426 17.255 M294.833 17.824 C 294.833 17.933,294.440 18.395,293.958 18.852 C 292.224 20.497,292.000 20.737,292.000 20.950 C 292.000 21.069,291.925 21.167,291.833 21.167 C 291.742 21.167,291.667 21.279,291.667 21.417 C 291.667 21.554,291.592 21.667,291.500 21.667 C 291.408 21.667,291.333 21.800,291.333 21.963 C 291.333 22.126,291.183 22.368,291.000 22.500 C 290.817 22.632,290.667 22.874,290.667 23.037 C 290.667 23.200,290.592 23.333,290.500 23.333 C 290.408 23.333,290.333 23.475,290.333 23.649 C 290.333 23.822,290.221 24.008,290.083 24.060 C 289.946 24.113,289.833 24.309,289.833 24.495 C 289.833 24.681,289.758 24.833,289.667 24.833 C 289.575 24.833,289.500 24.983,289.500 25.167 C 289.500 25.350,289.425 25.500,289.333 25.500 C 289.242 25.500,289.167 25.650,289.167 25.833 C 289.167 26.017,289.092 26.167,289.000 26.167 C 288.908 26.167,288.833 26.317,288.833 26.500 C 288.833 26.683,288.758 26.833,288.667 26.833 C 288.575 26.833,288.500 27.058,288.500 27.333 C 288.500 27.608,288.425 27.833,288.333 27.833 C 288.242 27.833,288.167 28.021,288.167 28.250 C 288.167 28.479,288.092 28.667,288.000 28.667 C 287.908 28.667,287.833 28.892,287.833 29.167 C 287.833 29.442,287.758 29.667,287.667 29.667 C 287.575 29.667,287.500 29.892,287.500 30.167 C 287.500 30.442,287.425 30.667,287.333 30.667 C 287.242 30.667,287.167 30.996,287.167 31.399 C 287.167 31.896,287.086 32.162,286.917 32.227 C 286.761 32.287,286.667 32.541,286.667 32.902 C 286.667 33.220,286.592 33.527,286.500 33.583 C 286.408 33.640,286.333 34.057,286.333 34.510 C 286.333 34.963,286.258 35.333,286.167 35.333 C 286.074 35.333,286.000 35.778,286.000 36.333 C 286.000 36.889,285.926 37.333,285.833 37.333 C 285.737 37.333,285.667 37.861,285.667 38.583 C 285.667 39.306,285.596 39.833,285.500 39.833 C 285.397 39.833,285.333 40.691,285.333 42.073 C 285.333 43.387,285.264 44.356,285.167 44.417 C 285.062 44.481,285.000 46.141,285.000 48.843 C 285.000 51.614,285.060 53.167,285.167 53.167 C 285.268 53.167,285.333 53.917,285.333 55.083 C 285.333 56.250,285.399 57.000,285.500 57.000 C 285.594 57.000,285.667 57.472,285.667 58.083 C 285.667 58.694,285.739 59.167,285.833 59.167 C 285.925 59.167,286.000 59.542,286.000 60.000 C 286.000 60.458,286.075 60.833,286.167 60.833 C 286.258 60.833,286.333 61.096,286.333 61.417 C 286.333 61.737,286.408 62.000,286.500 62.000 C 286.592 62.000,286.667 62.265,286.667 62.589 C 286.667 62.958,286.760 63.213,286.917 63.273 C 287.059 63.328,287.167 63.576,287.167 63.851 C 287.167 64.116,287.242 64.333,287.333 64.333 C 287.425 64.333,287.500 64.521,287.500 64.750 C 287.500 64.979,287.575 65.167,287.667 65.167 C 287.758 65.167,287.833 65.317,287.833 65.500 C 287.833 65.683,287.908 65.833,288.000 65.833 C 288.092 65.833,288.167 66.042,288.167 66.297 C 288.167 66.569,288.304 66.859,288.500 67.000 C 288.683 67.132,288.833 67.369,288.833 67.527 C 288.833 67.685,288.908 67.860,289.000 67.917 C 289.092 67.973,289.167 68.130,289.167 68.266 C 289.167 68.516,289.362 68.759,290.625 70.082 C 291.015 70.491,291.333 70.866,291.333 70.917 C 291.333 71.152,292.859 72.500,293.125 72.500 C 293.291 72.500,293.535 72.650,293.667 72.833 C 293.799 73.017,294.040 73.167,294.203 73.167 C 294.367 73.167,294.500 73.242,294.500 73.333 C 294.500 73.425,294.650 73.500,294.833 73.500 C 295.017 73.500,295.167 73.575,295.167 73.667 C 295.167 73.758,295.309 73.833,295.482 73.833 C 295.656 73.833,295.841 73.946,295.894 74.083 C 295.950 74.229,296.199 74.333,296.495 74.333 C 296.773 74.333,297.000 74.408,297.000 74.500 C 297.000 74.592,297.221 74.667,297.490 74.667 C 297.760 74.667,298.027 74.742,298.083 74.833 C 298.140 74.925,298.857 75.000,299.677 75.000 C 300.559 75.000,301.167 75.068,301.167 75.167 C 301.167 75.258,301.542 75.333,302.000 75.333 C 302.458 75.333,302.833 75.258,302.833 75.167 C 302.833 75.067,303.472 75.000,304.417 75.000 C 305.361 75.000,306.000 74.933,306.000 74.833 C 306.000 74.742,306.248 74.667,306.551 74.667 C 306.855 74.667,307.243 74.565,307.413 74.440 C 307.584 74.315,307.852 74.246,308.010 74.288 C 308.167 74.329,308.353 74.269,308.424 74.155 C 308.506 74.022,308.483 73.991,308.359 74.067 C 308.253 74.133,308.167 74.097,308.167 73.987 C 308.167 73.835,307.496 73.815,305.375 73.902 C 292.614 74.428,287.008 67.124,286.710 49.582 C 286.494 36.892,288.644 28.026,293.741 20.583 C 295.307 18.297,295.403 18.098,295.073 17.825 C 294.889 17.672,294.833 17.672,294.833 17.824 M327.042 18.083 C 326.927 18.213,326.833 18.417,326.833 18.537 C 326.833 18.656,326.646 18.895,326.417 19.067 C 326.178 19.246,326.000 19.548,326.000 19.773 C 326.000 19.990,325.925 20.167,325.833 20.167 C 325.742 20.167,325.667 20.387,325.667 20.657 C 325.667 20.926,325.592 21.193,325.500 21.250 C 325.408 21.307,325.333 21.574,325.333 21.843 C 325.333 22.113,325.258 22.333,325.167 22.333 C 325.075 22.333,325.000 22.633,325.000 23.000 C 325.000 23.367,324.925 23.667,324.833 23.667 C 324.742 23.667,324.667 24.004,324.667 24.417 C 324.667 24.829,324.592 25.167,324.500 25.167 C 324.408 25.167,324.333 25.542,324.333 26.000 C 324.333 26.458,324.258 26.833,324.167 26.833 C 324.073 26.833,324.000 27.306,324.000 27.917 C 324.000 28.528,323.927 29.000,323.833 29.000 C 323.735 29.000,323.667 29.583,323.667 30.417 C 323.667 31.250,323.598 31.833,323.500 31.833 C 323.130 31.833,323.291 39.729,323.667 40.000 C 323.850 40.132,324.000 40.374,324.000 40.537 C 324.000 40.717,324.124 40.833,324.316 40.833 C 324.489 40.833,324.674 40.946,324.727 41.083 C 324.802 41.280,325.143 41.333,326.316 41.333 C 327.421 41.333,327.875 41.268,328.060 41.083 C 328.197 40.946,328.427 40.833,328.571 40.833 C 329.213 40.833,328.748 40.520,327.958 40.420 C 325.361 40.091,324.833 39.350,324.833 36.034 C 324.833 31.109,325.532 26.561,327.115 21.189 C 327.773 18.954,327.842 18.578,327.656 18.231 C 327.412 17.775,327.330 17.755,327.042 18.083 M254.042 20.749 C 253.927 20.879,253.833 21.064,253.833 21.160 C 253.833 21.255,253.721 21.333,253.583 21.333 C 253.417 21.333,253.333 21.500,253.333 21.833 C 253.333 22.108,253.258 22.333,253.167 22.333 C 253.075 22.333,253.000 22.708,253.000 23.167 C 253.000 23.625,253.075 24.000,253.167 24.000 C 253.258 24.000,253.336 24.281,253.339 24.625 C 253.344 25.240,253.639 25.833,253.940 25.833 C 254.024 25.833,254.201 25.983,254.333 26.167 C 254.501 26.399,254.765 26.500,255.203 26.500 C 255.550 26.500,255.833 26.575,255.833 26.667 C 255.833 26.758,256.058 26.833,256.333 26.833 C 256.608 26.833,256.833 26.758,256.833 26.667 C 256.833 26.575,257.246 26.500,257.750 26.500 C 258.254 26.500,258.667 26.425,258.667 26.333 C 258.667 26.242,258.967 26.167,259.333 26.167 C 259.700 26.167,260.000 26.092,260.000 26.000 C 260.000 25.908,260.262 25.833,260.583 25.833 C 260.904 25.833,261.167 25.758,261.167 25.667 C 261.167 25.564,262.028 25.500,263.417 25.500 C 264.806 25.500,265.667 25.564,265.667 25.667 C 265.667 25.758,265.892 25.833,266.167 25.833 C 266.442 25.833,266.667 25.908,266.667 26.000 C 266.667 26.092,266.819 26.167,267.004 26.167 C 267.443 26.167,268.833 27.557,268.833 27.996 C 268.833 28.181,268.908 28.333,269.000 28.333 C 269.092 28.333,269.167 28.558,269.167 28.833 C 269.167 29.108,269.242 29.333,269.333 29.333 C 269.434 29.333,269.500 30.028,269.500 31.083 C 269.500 32.139,269.434 32.833,269.333 32.833 C 269.242 32.833,269.167 33.133,269.167 33.500 C 269.167 33.867,269.092 34.167,269.000 34.167 C 268.908 34.167,268.833 34.324,268.833 34.516 C 268.833 34.709,268.594 35.090,268.302 35.362 C 267.872 35.764,267.817 35.887,268.011 36.010 C 269.945 37.234,271.928 31.744,270.754 28.417 C 269.410 24.606,265.694 23.183,261.112 24.725 C 256.677 26.218,254.966 25.716,254.863 22.893 C 254.792 20.965,254.507 20.221,254.042 20.749 M303.839 20.686 C 303.037 20.930,302.333 21.464,302.333 21.831 C 302.333 22.000,302.240 22.177,302.125 22.223 C 302.001 22.273,302.034 22.312,302.208 22.320 C 302.369 22.327,302.500 22.258,302.500 22.167 C 302.500 22.067,303.139 22.000,304.083 22.000 C 305.028 22.000,305.667 22.067,305.667 22.167 C 305.667 22.258,305.803 22.333,305.969 22.333 C 306.135 22.333,306.431 22.483,306.628 22.667 C 306.825 22.850,307.067 23.000,307.165 23.000 C 307.401 23.000,308.500 24.103,308.500 24.340 C 308.500 24.441,308.594 24.619,308.708 24.734 C 308.823 24.850,309.067 25.153,309.250 25.407 C 310.002 26.451,310.811 27.167,311.237 27.167 C 311.473 27.167,311.667 27.242,311.667 27.333 C 311.667 27.425,311.967 27.500,312.333 27.500 C 312.700 27.500,313.000 27.425,313.000 27.333 C 313.000 27.242,313.269 27.167,313.597 27.167 C 314.370 27.167,314.286 26.850,313.408 26.451 C 311.865 25.750,311.561 25.537,310.867 24.667 C 308.248 21.386,305.908 20.060,303.839 20.686 M334.204 23.593 C 334.000 23.735,333.833 24.000,333.833 24.181 C 333.833 24.548,334.359 24.840,334.462 24.530 C 334.542 24.292,335.833 24.264,335.833 24.500 C 335.833 24.592,336.238 24.667,336.732 24.667 C 337.377 24.667,337.658 24.737,337.727 24.917 C 337.787 25.072,338.041 25.167,338.402 25.167 C 338.720 25.167,339.027 25.242,339.083 25.333 C 339.140 25.425,339.407 25.500,339.677 25.500 C 339.946 25.500,340.167 25.575,340.167 25.667 C 340.167 25.758,340.392 25.833,340.667 25.833 C 340.942 25.833,341.167 25.908,341.167 26.000 C 341.167 26.092,341.387 26.167,341.657 26.167 C 341.926 26.167,342.193 26.242,342.250 26.333 C 342.307 26.425,342.649 26.500,343.010 26.500 C 343.371 26.500,343.667 26.575,343.667 26.667 C 343.667 26.758,343.892 26.833,344.167 26.833 C 344.442 26.833,344.667 26.908,344.667 27.000 C 344.667 27.096,345.194 27.167,345.917 27.167 C 346.639 27.167,347.167 27.237,347.167 27.333 C 347.167 27.425,347.467 27.500,347.833 27.500 C 348.200 27.500,348.500 27.425,348.500 27.333 C 348.500 27.242,348.912 27.167,349.417 27.167 C 349.951 27.167,350.333 27.093,350.333 26.990 C 350.333 26.893,350.254 26.863,350.156 26.923 C 350.059 26.983,349.838 26.905,349.665 26.749 C 349.483 26.584,348.493 26.291,347.309 26.052 C 346.186 25.825,343.988 25.235,342.425 24.742 C 337.930 23.323,335.145 22.934,334.204 23.593 M255.708 36.583 C 255.594 36.713,255.500 36.935,255.500 37.076 C 255.500 37.218,255.425 37.333,255.333 37.333 C 255.233 37.333,255.167 38.028,255.167 39.083 C 255.167 40.139,255.233 40.833,255.333 40.833 C 255.425 40.833,255.500 40.992,255.500 41.186 C 255.500 41.603,256.601 42.667,257.033 42.667 C 257.198 42.667,257.333 42.742,257.333 42.833 C 257.333 42.925,257.633 43.000,258.000 43.000 C 258.367 43.000,258.667 43.075,258.667 43.167 C 258.667 43.266,259.306 43.333,260.250 43.333 C 261.194 43.333,261.833 43.401,261.833 43.500 C 261.833 43.594,262.306 43.667,262.917 43.667 C 263.528 43.667,264.000 43.739,264.000 43.833 C 264.000 43.925,264.225 44.000,264.500 44.000 C 264.775 44.000,265.000 44.075,265.000 44.167 C 265.000 44.258,265.142 44.333,265.316 44.333 C 265.489 44.333,265.674 44.446,265.727 44.583 C 265.780 44.721,265.938 44.833,266.078 44.833 C 266.218 44.833,266.333 44.908,266.333 45.000 C 266.333 45.092,266.472 45.167,266.642 45.167 C 266.812 45.167,267.186 45.392,267.474 45.667 C 267.762 45.942,268.075 46.167,268.171 46.167 C 268.410 46.167,269.500 47.276,269.500 47.519 C 269.500 47.628,269.762 47.971,270.083 48.283 C 270.404 48.594,270.667 48.958,270.667 49.091 C 270.667 49.224,270.742 49.333,270.833 49.333 C 270.925 49.333,271.000 49.483,271.000 49.667 C 271.000 49.850,271.075 50.000,271.167 50.000 C 271.258 50.000,271.333 50.225,271.333 50.500 C 271.333 50.775,271.408 51.000,271.500 51.000 C 271.592 51.000,271.667 51.337,271.667 51.750 C 271.667 52.163,271.742 52.500,271.833 52.500 C 271.936 52.500,272.000 53.306,272.000 54.583 C 272.000 55.861,271.936 56.667,271.833 56.667 C 271.742 56.667,271.667 57.004,271.667 57.417 C 271.667 57.829,271.592 58.167,271.500 58.167 C 271.408 58.167,271.333 58.392,271.333 58.667 C 271.333 58.942,271.258 59.167,271.167 59.167 C 271.075 59.167,271.000 59.283,271.000 59.424 C 271.000 59.566,270.813 59.869,270.583 60.098 C 270.354 60.328,270.167 60.593,270.167 60.687 C 270.167 60.782,269.867 61.148,269.500 61.500 C 268.471 62.489,268.989 62.946,270.253 62.165 C 273.727 60.018,274.588 52.513,271.874 48.026 C 269.764 44.536,266.449 42.617,261.750 42.164 C 257.669 41.771,256.670 40.975,256.668 38.114 C 256.666 36.550,256.280 35.933,255.708 36.583 M333.544 38.192 C 331.878 38.750,330.969 39.378,331.333 39.720 C 331.493 39.871,331.559 39.869,331.618 39.708 C 331.660 39.594,331.913 39.500,332.181 39.500 C 332.448 39.500,332.667 39.425,332.667 39.333 C 332.667 39.242,333.079 39.167,333.583 39.167 C 334.087 39.167,334.500 39.092,334.500 39.000 C 334.500 38.901,335.139 38.833,336.083 38.833 C 337.028 38.833,337.667 38.901,337.667 39.000 C 337.667 39.092,337.967 39.167,338.333 39.167 C 338.700 39.167,339.000 39.242,339.000 39.333 C 339.000 39.425,339.188 39.500,339.417 39.500 C 339.646 39.500,339.833 39.575,339.833 39.667 C 339.833 39.758,339.983 39.833,340.167 39.833 C 340.350 39.833,340.500 39.908,340.500 40.000 C 340.500 40.092,340.615 40.167,340.756 40.167 C 340.896 40.167,341.274 40.429,341.594 40.750 C 341.915 41.071,342.236 41.333,342.306 41.333 C 342.525 41.333,343.667 42.450,343.667 42.664 C 343.667 42.775,343.892 43.076,344.167 43.333 C 344.442 43.590,344.667 43.920,344.667 44.067 C 344.667 44.213,344.729 44.333,344.806 44.333 C 344.882 44.333,345.160 44.746,345.424 45.250 C 345.688 45.754,345.963 46.167,346.035 46.167 C 346.108 46.167,346.167 46.317,346.167 46.500 C 346.167 46.683,346.242 46.833,346.333 46.833 C 346.425 46.833,346.500 46.983,346.500 47.167 C 346.500 47.350,346.575 47.500,346.667 47.500 C 346.758 47.500,346.833 47.762,346.833 48.083 C 346.833 48.404,346.908 48.667,347.000 48.667 C 347.092 48.667,347.167 49.042,347.167 49.500 C 347.167 49.958,347.242 50.333,347.333 50.333 C 347.431 50.333,347.500 50.917,347.500 51.750 C 347.500 52.583,347.569 53.167,347.667 53.167 C 347.758 53.167,347.833 53.504,347.833 53.917 C 347.833 54.329,347.758 54.667,347.667 54.667 C 347.572 54.667,347.500 55.163,347.500 55.823 C 347.500 56.460,347.425 57.027,347.333 57.083 C 347.242 57.140,347.167 57.482,347.167 57.843 C 347.167 58.204,347.092 58.500,347.000 58.500 C 346.908 58.500,346.833 58.725,346.833 59.000 C 346.833 59.275,346.758 59.500,346.667 59.500 C 346.575 59.500,346.500 59.633,346.500 59.797 C 346.500 59.960,346.350 60.201,346.167 60.333 C 345.983 60.465,345.833 60.666,345.833 60.779 C 345.833 60.892,345.646 61.172,345.417 61.402 C 345.188 61.631,345.000 61.899,345.000 61.998 C 345.000 62.097,344.738 62.440,344.417 62.761 C 343.702 63.475,343.685 63.667,344.334 63.667 C 346.165 63.667,348.710 59.238,349.156 55.280 C 350.360 44.573,341.953 35.371,333.544 38.192 M299.837 47.100 C 298.575 47.440,297.409 48.667,298.349 48.667 C 298.524 48.667,298.667 48.592,298.667 48.500 C 298.667 48.399,299.413 48.333,300.573 48.333 C 301.665 48.333,302.524 48.405,302.583 48.500 C 302.640 48.592,302.907 48.667,303.177 48.667 C 303.446 48.667,303.667 48.742,303.667 48.833 C 303.667 48.925,303.817 49.000,304.000 49.000 C 304.183 49.000,304.333 49.075,304.333 49.167 C 304.333 49.258,304.448 49.333,304.589 49.333 C 304.729 49.333,305.090 49.577,305.391 49.875 C 305.692 50.173,306.139 50.566,306.385 50.748 C 306.632 50.930,306.833 51.157,306.833 51.253 C 306.833 51.348,306.983 51.535,307.167 51.667 C 307.350 51.799,307.500 52.024,307.500 52.167 C 307.500 52.310,307.650 52.535,307.833 52.667 C 308.017 52.799,308.167 53.040,308.167 53.203 C 308.167 53.367,308.242 53.500,308.333 53.500 C 308.425 53.500,308.500 53.650,308.500 53.833 C 308.500 54.017,308.575 54.167,308.667 54.167 C 308.758 54.167,308.833 54.429,308.833 54.750 C 308.833 55.071,308.908 55.333,309.000 55.333 C 309.092 55.333,309.167 55.708,309.167 56.167 C 309.167 56.625,309.242 57.000,309.333 57.000 C 309.437 57.000,309.500 57.944,309.500 59.500 C 309.500 61.056,309.437 62.000,309.333 62.000 C 309.242 62.000,309.167 62.221,309.167 62.490 C 309.167 62.760,309.092 63.027,309.000 63.083 C 308.908 63.140,308.833 63.365,308.833 63.583 C 308.833 63.802,308.758 64.027,308.667 64.083 C 308.575 64.140,308.500 64.299,308.500 64.437 C 308.500 64.575,308.125 65.054,307.667 65.500 C 306.911 66.236,306.593 66.668,306.986 66.425 C 307.070 66.374,307.167 66.419,307.203 66.525 C 307.443 67.244,309.418 65.631,310.168 64.104 C 313.996 56.308,307.200 45.122,299.837 47.100 M12.039 49.667 C 12.153 49.850,12.355 50.000,12.488 50.000 C 12.660 50.000,12.627 49.904,12.372 49.667 C 12.175 49.483,11.973 49.333,11.922 49.333 C 11.872 49.333,11.924 49.483,12.039 49.667 M23.338 52.744 C 23.223 52.883,23.068 52.958,22.993 52.912 C 22.918 52.866,22.809 52.904,22.752 52.997 C 22.694 53.090,22.745 53.164,22.865 53.161 C 23.146 53.155,23.753 52.698,23.637 52.581 C 23.588 52.532,23.453 52.605,23.338 52.744 M17.593 52.911 C 18.018 53.232,18.260 53.236,17.940 52.917 C 17.803 52.779,17.596 52.667,17.480 52.667 C 17.362 52.667,17.412 52.774,17.593 52.911 M321.042 59.416 C 320.927 59.546,320.833 59.768,320.833 59.910 C 320.833 60.051,320.758 60.167,320.667 60.167 C 320.575 60.167,320.500 60.312,320.500 60.490 C 320.500 60.668,320.425 60.860,320.333 60.917 C 320.239 60.975,320.167 61.780,320.167 62.760 C 320.167 63.809,320.233 64.500,320.333 64.500 C 320.425 64.500,320.500 64.800,320.500 65.167 C 320.500 65.533,320.575 65.833,320.667 65.833 C 320.758 65.833,320.833 66.058,320.833 66.333 C 320.833 66.608,320.908 66.833,321.000 66.833 C 321.092 66.833,321.167 66.983,321.167 67.167 C 321.167 67.350,321.242 67.500,321.333 67.500 C 321.425 67.500,321.500 67.612,321.500 67.750 C 321.500 67.887,321.575 68.000,321.667 68.000 C 321.758 68.000,321.833 68.094,321.834 68.208 C 321.834 68.440,322.554 69.333,322.741 69.333 C 322.806 69.333,323.148 69.633,323.500 70.000 C 323.852 70.367,324.259 70.667,324.404 70.667 C 324.548 70.667,324.667 70.773,324.667 70.903 C 324.667 71.033,324.892 71.238,325.167 71.360 C 325.442 71.482,325.667 71.638,325.667 71.707 C 325.667 71.777,325.854 71.833,326.083 71.833 C 326.313 71.833,326.500 71.908,326.500 72.000 C 326.500 72.092,326.650 72.167,326.833 72.167 C 327.017 72.167,327.167 72.242,327.167 72.333 C 327.167 72.425,327.317 72.500,327.500 72.500 C 327.683 72.500,327.833 72.575,327.833 72.667 C 327.833 72.758,328.058 72.833,328.333 72.833 C 328.608 72.833,328.833 72.908,328.833 73.000 C 328.833 73.092,329.171 73.167,329.583 73.167 C 329.996 73.167,330.333 73.242,330.333 73.333 C 330.333 73.425,330.708 73.500,331.167 73.500 C 331.625 73.500,332.000 73.575,332.000 73.667 C 332.000 73.772,333.278 73.833,335.500 73.833 C 337.722 73.833,339.000 73.772,339.000 73.667 C 339.000 73.573,339.472 73.500,340.083 73.500 C 340.694 73.500,341.167 73.427,341.167 73.333 C 341.167 73.242,341.460 73.167,341.819 73.167 C 342.178 73.167,342.501 73.080,342.537 72.974 C 342.572 72.868,342.841 72.788,343.134 72.796 C 343.427 72.804,343.667 72.744,343.667 72.663 C 343.667 72.359,342.418 72.300,340.336 72.506 C 328.796 73.649,320.682 68.659,321.849 61.137 C 322.099 59.528,321.697 58.671,321.042 59.416 M246.869 61.031 C 246.758 61.142,246.667 61.314,246.667 61.413 C 246.667 61.512,246.517 61.701,246.333 61.833 C 246.150 61.965,246.000 62.207,246.000 62.370 C 246.000 62.533,245.925 62.667,245.833 62.667 C 245.731 62.667,245.667 63.472,245.667 64.750 C 245.667 66.028,245.731 66.833,245.833 66.833 C 245.925 66.833,246.000 66.983,246.000 67.167 C 246.000 67.350,246.075 67.500,246.167 67.500 C 246.258 67.500,246.333 67.653,246.333 67.839 C 246.333 68.164,247.344 69.333,247.624 69.333 C 247.699 69.333,247.868 69.483,248.000 69.667 C 248.132 69.850,248.374 70.000,248.537 70.000 C 248.700 70.000,248.833 70.075,248.833 70.167 C 248.833 70.258,248.983 70.333,249.167 70.333 C 249.350 70.333,249.500 70.408,249.500 70.500 C 249.500 70.592,249.642 70.667,249.816 70.667 C 249.989 70.667,250.174 70.779,250.227 70.917 C 250.283 71.063,250.533 71.167,250.828 71.167 C 251.106 71.167,251.333 71.242,251.333 71.333 C 251.333 71.425,251.633 71.500,252.000 71.500 C 252.367 71.500,252.667 71.575,252.667 71.667 C 252.667 71.761,253.139 71.833,253.750 71.833 C 254.361 71.833,254.833 71.906,254.833 72.000 C 254.833 72.107,256.583 72.167,259.750 72.167 C 262.917 72.167,264.667 72.107,264.667 72.000 C 264.667 71.907,265.111 71.833,265.667 71.833 C 266.222 71.833,266.667 71.759,266.667 71.667 C 266.667 71.575,266.962 71.500,267.323 71.500 C 267.685 71.500,268.027 71.425,268.083 71.333 C 268.140 71.242,268.372 71.167,268.598 71.167 C 269.038 71.167,269.340 70.710,269.028 70.517 C 268.925 70.454,268.108 70.509,267.212 70.640 C 265.033 70.959,257.260 70.990,255.429 70.687 C 249.422 69.693,247.144 67.841,247.308 64.083 C 247.451 60.808,247.406 60.494,246.869 61.031 " stroke="none" fill="#5a0404" fill-rule="evenodd"></path><path id="path1" d="M5.833 0.529 C 5.513 0.716,5.225 0.936,5.194 1.018 C 5.164 1.100,5.041 1.167,4.922 1.167 C 4.669 1.167,2.667 3.102,2.667 3.347 C 2.667 3.439,2.517 3.675,2.333 3.872 C 2.150 4.069,2.000 4.365,2.000 4.531 C 2.000 4.697,1.925 4.833,1.833 4.833 C 1.742 4.833,1.667 5.016,1.667 5.240 C 1.667 5.464,1.601 5.688,1.520 5.738 C 1.316 5.864,0.833 7.388,0.833 7.906 C 0.833 8.141,0.758 8.333,0.667 8.333 C 0.575 8.333,0.500 8.731,0.500 9.217 C 0.500 9.703,0.406 10.194,0.292 10.308 C 0.086 10.514,-0.124 76.216,0.079 77.095 C 0.265 77.905,2.110 79.324,2.486 78.947 C 2.616 78.818,2.667 78.845,2.667 79.043 C 2.667 79.374,4.608 81.333,4.936 81.333 C 5.063 81.333,5.167 81.408,5.167 81.500 C 5.167 81.592,5.279 81.667,5.417 81.667 C 5.554 81.667,5.667 81.723,5.667 81.793 C 5.667 82.365,12.589 82.613,13.620 82.079 C 13.862 81.953,14.129 81.894,14.215 81.947 C 14.301 81.999,14.425 81.954,14.492 81.846 C 14.559 81.738,14.794 81.637,15.015 81.620 C 15.236 81.604,16.045 81.270,16.814 80.879 C 17.582 80.487,18.313 80.167,18.439 80.167 C 18.564 80.167,18.667 80.092,18.667 80.000 C 18.667 79.908,18.779 79.833,18.917 79.833 C 19.054 79.833,19.167 79.758,19.167 79.667 C 19.167 79.575,19.317 79.500,19.500 79.500 C 19.683 79.500,19.833 79.425,19.833 79.333 C 19.833 79.242,19.977 79.167,20.153 79.167 C 20.328 79.167,20.497 79.097,20.528 79.012 C 20.558 78.928,20.696 78.834,20.833 78.804 C 20.971 78.774,21.121 78.712,21.167 78.666 C 21.212 78.619,21.687 78.357,22.221 78.082 C 22.756 77.808,23.318 77.471,23.471 77.333 C 23.625 77.196,23.975 76.974,24.250 76.839 C 24.525 76.705,24.949 76.461,25.192 76.298 C 25.436 76.134,25.738 76.000,25.864 76.000 C 25.990 76.000,26.201 75.850,26.333 75.667 C 26.465 75.483,26.707 75.333,26.870 75.333 C 27.033 75.333,27.167 75.274,27.167 75.201 C 27.167 75.129,27.579 74.861,28.083 74.605 C 28.587 74.350,29.000 74.072,29.000 73.987 C 29.000 73.903,29.150 73.833,29.333 73.833 C 29.517 73.833,29.667 73.758,29.667 73.667 C 29.667 73.575,29.810 73.500,29.986 73.500 C 30.162 73.500,30.331 73.444,30.361 73.375 C 30.392 73.306,30.735 73.081,31.125 72.875 C 32.780 71.999,33.167 71.764,33.167 71.636 C 33.167 71.561,33.285 71.500,33.429 71.500 C 33.573 71.500,33.795 71.406,33.923 71.292 C 34.474 70.797,34.663 70.667,34.826 70.667 C 34.922 70.667,35.000 70.592,35.000 70.500 C 35.000 70.408,35.150 70.333,35.333 70.333 C 35.517 70.333,35.667 70.258,35.667 70.167 C 35.667 70.075,35.821 70.000,36.010 70.000 C 36.199 70.000,36.307 69.925,36.250 69.833 C 36.193 69.742,36.264 69.667,36.407 69.667 C 36.550 69.667,36.667 69.592,36.667 69.500 C 36.667 69.408,36.817 69.333,37.000 69.333 C 37.183 69.333,37.333 69.258,37.333 69.167 C 37.333 69.075,37.433 69.000,37.555 69.000 C 37.920 69.000,39.319 68.234,39.649 67.854 C 39.818 67.659,40.078 67.500,40.228 67.500 C 40.378 67.500,40.500 67.425,40.500 67.333 C 40.500 67.242,40.650 67.167,40.833 67.167 C 41.017 67.167,41.167 67.092,41.167 67.000 C 41.167 66.908,41.279 66.833,41.417 66.833 C 41.554 66.833,41.667 66.758,41.667 66.667 C 41.667 66.575,41.817 66.500,42.000 66.500 C 42.183 66.500,42.333 66.425,42.333 66.333 C 42.333 66.242,42.432 66.167,42.552 66.167 C 42.672 66.167,42.931 66.017,43.128 65.833 C 43.325 65.650,43.595 65.500,43.729 65.500 C 43.863 65.500,43.997 65.444,44.028 65.375 C 44.058 65.306,44.346 65.121,44.667 64.964 C 45.577 64.518,47.074 63.644,47.167 63.506 C 47.212 63.437,47.531 63.280,47.875 63.157 C 48.219 63.034,48.500 62.873,48.500 62.800 C 48.500 62.727,48.612 62.667,48.750 62.667 C 48.887 62.667,49.000 62.592,49.000 62.500 C 49.000 62.408,49.133 62.333,49.297 62.333 C 49.460 62.333,49.701 62.183,49.833 62.000 C 49.965 61.817,50.207 61.667,50.370 61.667 C 50.533 61.667,50.667 61.592,50.667 61.500 C 50.667 61.408,50.817 61.333,51.000 61.333 C 51.183 61.333,51.333 61.262,51.333 61.174 C 51.333 61.087,51.596 60.891,51.917 60.739 C 52.237 60.587,52.500 60.396,52.500 60.314 C 52.500 60.233,52.650 60.167,52.833 60.167 C 53.017 60.167,53.167 60.092,53.167 60.000 C 53.167 59.908,53.298 59.832,53.458 59.830 C 53.619 59.828,53.938 59.679,54.167 59.500 C 54.396 59.321,54.703 59.172,54.849 59.170 C 54.995 59.168,55.251 59.017,55.417 58.833 C 55.583 58.650,55.857 58.500,56.026 58.500 C 56.195 58.500,56.333 58.425,56.333 58.333 C 56.333 58.242,56.435 58.167,56.559 58.167 C 56.683 58.167,56.987 57.979,57.234 57.750 C 57.482 57.521,57.792 57.333,57.925 57.333 C 58.058 57.333,58.167 57.258,58.167 57.167 C 58.167 57.075,58.300 57.000,58.463 57.000 C 58.626 57.000,58.868 56.850,59.000 56.667 C 59.132 56.483,59.374 56.333,59.537 56.333 C 59.700 56.333,59.833 56.258,59.833 56.167 C 59.833 56.075,59.977 56.000,60.153 56.000 C 60.328 56.000,60.499 55.921,60.531 55.824 C 60.563 55.728,60.701 55.630,60.836 55.607 C 60.972 55.583,61.518 55.306,62.050 54.991 C 62.582 54.675,63.163 54.343,63.342 54.252 C 63.521 54.162,63.667 54.030,63.667 53.960 C 63.667 53.891,63.803 53.833,63.969 53.833 C 64.135 53.833,64.431 53.683,64.628 53.500 C 64.825 53.317,65.102 53.167,65.243 53.167 C 65.384 53.167,65.500 53.104,65.500 53.028 C 65.500 52.952,65.706 52.784,65.958 52.654 C 66.210 52.525,66.538 52.287,66.686 52.126 C 66.834 51.965,67.073 51.833,67.216 51.833 C 67.359 51.833,67.623 51.646,67.804 51.417 C 67.984 51.187,68.188 51.000,68.258 51.000 C 68.328 51.000,68.627 50.816,68.922 50.591 C 69.217 50.365,69.518 50.234,69.589 50.299 C 69.661 50.364,69.666 50.323,69.600 50.208 C 69.534 50.094,69.541 50.000,69.615 50.000 C 69.744 50.000,70.254 49.593,71.167 48.765 C 71.775 48.213,72.500 47.358,72.500 47.193 C 72.500 47.114,72.725 46.814,73.000 46.526 C 73.275 46.238,73.500 45.952,73.500 45.890 C 73.500 45.827,73.618 45.646,73.763 45.486 C 73.907 45.326,74.041 45.088,74.060 44.956 C 74.080 44.825,74.224 44.521,74.381 44.281 C 74.953 43.409,74.723 37.840,74.115 37.835 C 74.041 37.834,74.021 37.767,74.071 37.686 C 74.121 37.605,74.013 37.350,73.831 37.118 C 73.649 36.887,73.500 36.646,73.500 36.582 C 73.500 36.519,73.275 36.257,73.000 36.000 C 72.725 35.743,72.500 35.452,72.500 35.353 C 72.500 35.151,71.837 34.368,71.097 33.693 C 70.829 33.449,70.354 33.006,70.041 32.708 C 69.728 32.410,69.405 32.167,69.324 32.167 C 69.243 32.167,68.450 31.454,67.562 30.583 C 66.674 29.712,65.863 29.000,65.760 29.000 C 65.658 29.000,65.465 28.850,65.333 28.667 C 65.201 28.483,65.035 28.333,64.965 28.333 C 64.895 28.333,64.690 28.207,64.510 28.053 C 64.120 27.719,62.371 26.694,61.958 26.558 C 61.798 26.505,61.667 26.395,61.667 26.314 C 61.667 26.233,61.554 26.167,61.417 26.167 C 61.279 26.167,61.167 26.092,61.167 26.000 C 61.167 25.908,61.017 25.833,60.833 25.833 C 60.650 25.833,60.500 25.776,60.500 25.706 C 60.500 25.636,60.219 25.448,59.875 25.288 C 59.117 24.936,58.416 24.534,57.749 24.067 C 56.966 23.519,55.338 22.667,55.073 22.667 C 54.941 22.667,54.833 22.592,54.833 22.500 C 54.833 22.408,54.718 22.333,54.576 22.333 C 54.435 22.333,54.158 22.183,53.962 22.000 C 53.765 21.817,53.505 21.667,53.385 21.667 C 53.265 21.667,53.167 21.592,53.167 21.500 C 53.167 21.408,53.023 21.333,52.847 21.333 C 52.672 21.333,52.503 21.277,52.472 21.208 C 52.413 21.074,50.244 19.742,49.417 19.332 C 49.142 19.195,48.771 18.952,48.594 18.792 C 48.416 18.631,48.172 18.500,48.052 18.500 C 47.932 18.500,47.833 18.425,47.833 18.333 C 47.833 18.242,47.720 18.167,47.581 18.167 C 47.348 18.167,46.695 17.863,46.500 17.665 C 46.284 17.445,44.988 16.667,44.837 16.667 C 44.743 16.667,44.667 16.592,44.667 16.500 C 44.667 16.408,44.551 16.333,44.410 16.333 C 44.268 16.333,43.992 16.183,43.795 16.000 C 43.598 15.817,43.339 15.667,43.219 15.667 C 43.098 15.667,43.000 15.610,43.000 15.541 C 43.000 15.471,42.756 15.309,42.458 15.179 C 42.160 15.049,41.879 14.900,41.833 14.847 C 41.743 14.742,41.281 14.471,40.276 13.932 C 39.646 13.594,39.632 13.594,39.402 13.909 C 39.172 14.223,39.155 14.222,38.485 13.865 C 38.109 13.664,37.696 13.500,37.568 13.500 C 37.439 13.500,37.333 13.425,37.333 13.333 C 37.333 13.242,37.200 13.167,37.037 13.167 C 36.874 13.167,36.632 13.017,36.500 12.833 C 36.368 12.650,36.126 12.500,35.963 12.500 C 35.800 12.500,35.667 12.425,35.667 12.333 C 35.667 12.242,35.517 12.167,35.333 12.167 C 35.150 12.167,35.000 12.092,35.000 12.000 C 35.000 11.908,34.920 11.833,34.821 11.833 C 34.723 11.833,34.538 11.740,34.411 11.625 C 33.856 11.128,33.670 11.000,33.500 11.000 C 33.401 11.000,33.158 10.850,32.962 10.667 C 32.765 10.483,32.505 10.333,32.385 10.333 C 32.265 10.333,32.167 10.272,32.167 10.198 C 32.167 10.123,31.904 9.959,31.583 9.833 C 31.262 9.707,31.000 9.543,31.000 9.469 C 31.000 9.394,30.850 9.333,30.667 9.333 C 30.483 9.333,30.333 9.258,30.333 9.167 C 30.333 9.075,30.183 9.000,30.000 9.000 C 29.817 9.000,29.667 8.925,29.667 8.833 C 29.667 8.742,29.517 8.667,29.333 8.667 C 29.150 8.667,29.000 8.592,29.000 8.500 C 29.000 8.408,28.884 8.333,28.742 8.333 C 28.600 8.333,28.310 8.146,28.098 7.917 C 27.886 7.688,27.589 7.500,27.439 7.500 C 27.289 7.500,27.167 7.425,27.167 7.333 C 27.167 7.242,27.033 7.167,26.870 7.167 C 26.707 7.167,26.465 7.017,26.333 6.833 C 26.201 6.650,25.960 6.500,25.797 6.500 C 25.633 6.500,25.500 6.439,25.500 6.364 C 25.500 6.290,25.238 6.126,24.917 6.000 C 24.596 5.874,24.333 5.710,24.333 5.636 C 24.333 5.561,24.218 5.500,24.076 5.500 C 23.935 5.500,23.670 5.361,23.487 5.191 C 23.305 5.021,22.859 4.739,22.496 4.566 C 22.134 4.392,21.836 4.194,21.835 4.125 C 21.834 4.056,21.683 4.000,21.500 4.000 C 21.317 4.000,21.167 3.925,21.167 3.833 C 21.167 3.742,21.017 3.667,20.833 3.667 C 20.650 3.667,20.500 3.592,20.500 3.500 C 20.500 3.408,20.350 3.333,20.167 3.333 C 19.983 3.333,19.833 3.258,19.833 3.167 C 19.833 3.075,19.683 3.000,19.500 3.000 C 19.317 3.000,19.167 2.925,19.167 2.833 C 19.167 2.742,19.054 2.667,18.917 2.667 C 18.779 2.667,18.667 2.592,18.667 2.500 C 18.667 2.408,18.553 2.333,18.414 2.333 C 18.276 2.333,18.013 2.258,17.831 2.167 C 17.649 2.075,17.369 1.937,17.208 1.860 C 17.048 1.783,16.558 1.521,16.119 1.277 C 15.680 1.033,15.137 0.833,14.911 0.833 C 14.685 0.833,14.500 0.758,14.500 0.667 C 14.500 0.575,14.279 0.500,14.010 0.500 C 13.740 0.500,13.473 0.425,13.417 0.333 C 13.195 -0.025,6.488 0.149,5.833 0.529 M111.500 9.167 C 111.500 9.263,110.972 9.333,110.250 9.333 C 109.528 9.333,109.000 9.404,109.000 9.500 C 109.000 9.592,108.700 9.667,108.333 9.667 C 107.967 9.667,107.667 9.742,107.667 9.833 C 107.667 9.925,107.442 10.000,107.167 10.000 C 106.892 10.000,106.667 10.075,106.667 10.167 C 106.667 10.258,106.446 10.333,106.177 10.333 C 105.907 10.333,105.640 10.408,105.583 10.500 C 105.527 10.592,105.335 10.667,105.157 10.667 C 104.979 10.667,104.833 10.742,104.833 10.833 C 104.833 10.925,104.683 11.000,104.500 11.000 C 104.317 11.000,104.167 11.075,104.167 11.167 C 104.167 11.258,104.052 11.333,103.911 11.333 C 103.771 11.333,103.613 11.446,103.560 11.583 C 103.508 11.721,103.301 11.833,103.102 11.833 C 102.903 11.833,102.632 11.983,102.500 12.167 C 102.368 12.350,102.156 12.500,102.030 12.500 C 101.904 12.500,101.590 12.725,101.333 13.000 C 101.076 13.275,100.777 13.500,100.668 13.500 C 100.415 13.500,98.167 15.754,98.167 16.008 C 98.167 16.114,97.942 16.410,97.667 16.667 C 97.392 16.924,97.167 17.254,97.167 17.400 C 97.167 17.547,97.092 17.667,97.000 17.667 C 96.908 17.667,96.833 17.771,96.833 17.899 C 96.833 18.027,96.721 18.174,96.583 18.227 C 96.446 18.280,96.333 18.438,96.333 18.578 C 96.333 18.718,96.258 18.833,96.167 18.833 C 96.075 18.833,96.000 18.983,96.000 19.167 C 96.000 19.350,95.925 19.500,95.833 19.500 C 95.742 19.500,95.667 19.725,95.667 20.000 C 95.667 20.275,95.592 20.500,95.500 20.500 C 95.408 20.500,95.333 20.762,95.333 21.083 C 95.333 21.404,95.258 21.667,95.167 21.667 C 95.075 21.667,95.000 21.967,95.000 22.333 C 95.000 22.700,94.925 23.000,94.833 23.000 C 94.723 23.000,94.667 31.158,94.667 47.140 L 94.667 71.280 95.326 71.890 L 95.985 72.500 97.909 72.500 C 99.081 72.500,99.833 72.435,99.833 72.333 C 99.833 72.242,99.911 72.167,100.006 72.167 C 100.100 72.167,100.438 71.907,100.756 71.589 L 101.333 71.011 101.333 63.506 L 101.333 56.000 108.103 56.000 L 114.872 56.000 115.436 55.384 L 116.000 54.768 116.000 53.039 C 116.000 51.879,115.931 51.240,115.792 51.099 C 115.677 50.983,115.434 50.688,115.252 50.444 L 114.921 50.000 108.127 50.000 L 101.333 50.000 101.333 37.333 C 101.333 29.000,101.390 24.667,101.500 24.667 C 101.592 24.667,101.667 24.367,101.667 24.000 C 101.667 23.633,101.742 23.333,101.833 23.333 C 101.925 23.333,102.000 23.108,102.000 22.833 C 102.000 22.558,102.075 22.333,102.167 22.333 C 102.258 22.333,102.333 22.183,102.333 22.000 C 102.333 21.817,102.408 21.667,102.500 21.667 C 102.592 21.667,102.667 21.554,102.667 21.417 C 102.667 21.279,102.742 21.167,102.833 21.167 C 102.925 21.167,103.000 21.017,103.000 20.833 C 103.000 20.650,103.085 20.500,103.189 20.500 C 103.407 20.500,104.164 19.665,104.171 19.417 C 104.174 19.325,104.405 19.063,104.683 18.833 C 104.962 18.604,105.445 18.173,105.756 17.875 C 106.067 17.577,106.423 17.333,106.546 17.333 C 106.670 17.333,106.931 17.183,107.128 17.000 C 107.325 16.817,107.602 16.667,107.743 16.667 C 107.884 16.667,108.000 16.592,108.000 16.500 C 108.000 16.408,108.150 16.333,108.333 16.333 C 108.517 16.333,108.667 16.258,108.667 16.167 C 108.667 16.075,108.892 16.000,109.167 16.000 C 109.442 16.000,109.667 15.925,109.667 15.833 C 109.667 15.742,109.962 15.667,110.323 15.667 C 110.685 15.667,111.027 15.592,111.083 15.500 C 111.140 15.408,111.702 15.333,112.333 15.333 C 112.964 15.333,113.527 15.258,113.583 15.167 C 113.640 15.075,113.901 15.000,114.163 15.000 C 114.491 15.000,114.852 14.796,115.320 14.346 L 116.000 13.693 116.000 12.092 L 116.000 10.491 115.254 9.746 L 114.509 9.000 113.004 9.000 C 112.113 9.000,111.500 9.068,111.500 9.167 M149.083 10.500 C 149.027 10.592,148.835 10.667,148.657 10.667 C 148.479 10.667,148.333 10.742,148.333 10.833 C 148.333 10.925,148.238 11.000,148.120 11.000 C 147.845 11.000,147.333 11.598,147.333 11.919 C 147.333 12.055,147.258 12.167,147.167 12.167 C 147.075 12.167,147.000 12.317,147.000 12.500 C 147.000 12.683,146.925 12.833,146.833 12.833 C 146.742 12.833,146.667 13.058,146.667 13.333 C 146.667 13.608,146.592 13.833,146.500 13.833 C 146.402 13.833,146.333 14.417,146.333 15.250 C 146.333 16.083,146.265 16.667,146.167 16.667 C 146.058 16.667,146.000 19.000,146.000 23.333 C 146.000 29.148,145.968 30.000,145.750 30.000 C 145.371 30.000,145.371 45.294,145.750 45.440 C 145.966 45.523,146.000 46.345,146.000 51.434 C 146.000 55.256,146.059 57.333,146.167 57.333 C 146.271 57.333,146.333 58.389,146.333 60.167 C 146.333 61.944,146.395 63.000,146.500 63.000 C 146.601 63.000,146.667 63.694,146.667 64.750 C 146.667 65.806,146.733 66.500,146.833 66.500 C 146.927 66.500,147.000 66.972,147.000 67.583 C 147.000 68.194,147.073 68.667,147.167 68.667 C 147.258 68.667,147.333 68.892,147.333 69.167 C 147.333 69.442,147.408 69.667,147.500 69.667 C 147.592 69.667,147.667 69.817,147.667 70.000 C 147.667 70.183,147.742 70.333,147.833 70.333 C 147.925 70.333,148.000 70.465,148.000 70.625 C 148.000 70.966,148.702 71.833,148.978 71.833 C 149.082 71.833,149.167 71.908,149.167 72.000 C 149.167 72.092,149.317 72.167,149.500 72.167 C 149.683 72.167,149.833 72.242,149.833 72.333 C 149.833 72.433,150.472 72.500,151.417 72.500 C 152.361 72.500,153.000 72.433,153.000 72.333 C 153.000 72.242,153.116 72.167,153.258 72.167 C 153.548 72.167,154.333 71.442,154.333 71.174 C 154.333 71.078,154.408 71.000,154.500 71.000 C 154.593 71.000,154.667 70.556,154.667 70.000 C 154.667 69.444,154.741 69.000,154.833 69.000 C 154.936 69.000,155.000 68.139,155.000 66.750 C 155.000 65.361,154.936 64.500,154.833 64.500 C 154.727 64.500,154.667 63.194,154.667 60.917 C 154.667 58.639,154.606 57.333,154.500 57.333 C 154.396 57.333,154.333 56.306,154.333 54.583 C 154.333 52.861,154.271 51.833,154.167 51.833 C 154.061 51.833,154.000 50.556,154.000 48.333 C 154.000 46.111,153.939 44.833,153.833 44.833 C 153.725 44.833,153.667 42.559,153.667 38.343 C 153.667 34.196,153.727 31.816,153.833 31.750 C 153.937 31.686,154.000 30.137,154.000 27.657 C 154.000 25.108,154.060 23.667,154.167 23.667 C 154.273 23.667,154.333 22.333,154.333 20.000 C 154.333 17.667,154.394 16.333,154.500 16.333 C 154.592 16.333,154.667 15.921,154.667 15.417 C 154.667 14.912,154.592 14.500,154.500 14.500 C 154.407 14.500,154.333 14.056,154.333 13.500 C 154.333 12.944,154.259 12.500,154.167 12.500 C 154.075 12.500,154.000 12.388,154.000 12.252 C 154.000 11.999,153.674 11.542,153.094 10.980 C 152.916 10.807,152.560 10.667,152.302 10.667 C 152.044 10.667,151.833 10.592,151.833 10.500 C 151.833 10.403,151.281 10.333,150.510 10.333 C 149.782 10.333,149.140 10.408,149.083 10.500 M130.500 10.833 C 130.500 10.925,130.205 11.000,129.845 11.000 C 129.346 11.000,129.113 11.099,128.863 11.417 C 128.683 11.646,128.447 11.833,128.339 11.833 C 128.059 11.833,127.667 12.263,127.667 12.571 C 127.667 12.715,127.592 12.833,127.500 12.833 C 127.408 12.833,127.333 13.058,127.333 13.333 C 127.333 13.608,127.258 13.833,127.167 13.833 C 127.070 13.833,127.000 14.361,127.000 15.083 C 127.000 15.806,127.070 16.333,127.167 16.333 C 127.258 16.333,127.333 16.542,127.333 16.797 C 127.333 17.069,127.471 17.359,127.667 17.500 C 127.850 17.632,128.000 17.869,128.000 18.026 C 128.000 18.182,128.150 18.358,128.333 18.417 C 128.517 18.475,128.667 18.592,128.667 18.678 C 128.667 18.763,128.812 18.833,128.990 18.833 C 129.168 18.833,129.360 18.908,129.417 19.000 C 129.473 19.092,129.815 19.167,130.177 19.167 C 130.538 19.167,130.833 19.242,130.833 19.333 C 130.833 19.551,132.782 19.551,132.917 19.333 C 132.973 19.242,133.315 19.167,133.677 19.167 C 134.038 19.167,134.333 19.092,134.333 19.000 C 134.333 18.908,134.451 18.833,134.595 18.833 C 134.855 18.833,135.333 18.455,135.333 18.250 C 135.333 18.077,135.794 17.667,135.988 17.667 C 136.086 17.667,136.167 17.517,136.167 17.333 C 136.167 17.150,136.242 17.000,136.333 17.000 C 136.435 17.000,136.500 16.250,136.500 15.083 C 136.500 13.917,136.435 13.167,136.333 13.167 C 136.242 13.167,136.167 13.017,136.167 12.833 C 136.167 12.650,136.073 12.498,135.958 12.496 C 135.844 12.494,135.526 12.232,135.252 11.913 C 134.977 11.594,134.659 11.333,134.543 11.333 C 134.428 11.333,134.333 11.258,134.333 11.167 C 134.333 11.075,134.113 11.000,133.843 11.000 C 133.574 11.000,133.307 10.925,133.250 10.833 C 133.193 10.742,132.551 10.667,131.823 10.667 C 131.052 10.667,130.500 10.736,130.500 10.833 M301.833 14.333 C 301.833 14.425,301.533 14.500,301.167 14.500 C 300.685 14.500,300.500 14.569,300.500 14.750 C 300.500 14.925,300.324 15.000,299.917 15.000 C 299.596 15.000,299.333 15.075,299.333 15.167 C 299.333 15.258,299.183 15.333,299.000 15.333 C 298.817 15.333,298.667 15.408,298.667 15.500 C 298.667 15.592,298.517 15.667,298.333 15.667 C 298.150 15.667,298.000 15.742,298.000 15.833 C 298.000 15.925,297.850 16.000,297.667 16.000 C 297.483 16.000,297.333 16.075,297.333 16.167 C 297.333 16.258,297.202 16.334,297.042 16.335 C 296.881 16.336,296.487 16.584,296.167 16.886 C 295.846 17.189,295.440 17.490,295.264 17.557 C 295.033 17.644,294.995 17.728,295.126 17.859 C 295.386 18.120,295.266 18.356,293.741 20.583 C 288.644 28.026,286.494 36.892,286.710 49.582 C 287.008 67.124,292.614 74.428,305.375 73.902 C 307.653 73.808,308.167 73.828,308.167 74.010 C 308.167 74.184,308.211 74.189,308.367 74.033 C 308.477 73.923,308.702 73.833,308.867 73.833 C 309.032 73.833,309.167 73.758,309.167 73.667 C 309.167 73.575,309.378 73.500,309.635 73.500 C 309.893 73.500,310.265 73.350,310.462 73.167 C 310.658 72.983,310.918 72.833,311.040 72.833 C 311.161 72.833,311.368 72.683,311.500 72.500 C 311.632 72.317,311.839 72.167,311.959 72.167 C 312.244 72.167,314.833 69.576,314.833 69.291 C 314.833 69.171,314.983 68.965,315.167 68.833 C 315.350 68.701,315.500 68.460,315.500 68.297 C 315.500 68.133,315.575 68.000,315.667 68.000 C 315.758 68.000,315.833 67.887,315.833 67.750 C 315.833 67.612,315.908 67.500,316.000 67.500 C 316.092 67.500,316.167 67.382,316.167 67.238 C 316.167 67.094,316.279 66.864,316.417 66.726 C 316.554 66.589,316.667 66.332,316.667 66.155 C 316.667 65.978,316.742 65.833,316.833 65.833 C 316.925 65.833,317.000 65.688,317.000 65.510 C 317.000 65.332,317.075 65.140,317.167 65.083 C 317.258 65.027,317.333 64.685,317.333 64.323 C 317.333 63.962,317.408 63.667,317.500 63.667 C 317.592 63.667,317.667 63.367,317.667 63.000 C 317.667 62.633,317.742 62.333,317.833 62.333 C 317.940 62.333,318.000 60.781,318.000 58.010 C 318.000 55.307,317.938 53.648,317.833 53.583 C 317.742 53.527,317.667 53.185,317.667 52.823 C 317.667 52.462,317.592 52.167,317.500 52.167 C 317.408 52.167,317.333 51.946,317.333 51.677 C 317.333 51.407,317.258 51.140,317.167 51.083 C 317.075 51.027,317.000 50.760,317.000 50.490 C 317.000 50.221,316.925 50.000,316.833 50.000 C 316.742 50.000,316.667 49.850,316.667 49.667 C 316.667 49.481,316.556 49.333,316.417 49.333 C 316.278 49.333,316.167 49.185,316.167 49.000 C 316.167 48.817,316.092 48.667,316.000 48.667 C 315.908 48.667,315.833 48.517,315.833 48.333 C 315.833 48.150,315.758 48.000,315.667 48.000 C 315.575 48.000,315.500 47.843,315.500 47.650 C 315.500 47.458,315.275 47.090,315.000 46.833 C 314.725 46.576,314.500 46.281,314.500 46.178 C 314.500 45.941,313.405 44.833,313.172 44.833 C 313.077 44.833,313.000 44.756,313.000 44.661 C 313.000 44.412,311.884 43.333,311.626 43.333 C 311.505 43.333,311.299 43.183,311.167 43.000 C 311.035 42.817,310.793 42.667,310.630 42.667 C 310.467 42.667,310.333 42.592,310.333 42.500 C 310.333 42.408,310.221 42.333,310.083 42.333 C 309.946 42.333,309.833 42.258,309.833 42.167 C 309.833 42.075,309.608 42.000,309.333 42.000 C 309.058 42.000,308.833 41.925,308.833 41.833 C 308.833 41.742,308.683 41.667,308.500 41.667 C 308.317 41.667,308.167 41.592,308.167 41.500 C 308.167 41.408,307.950 41.333,307.684 41.333 C 307.410 41.333,307.161 41.226,307.106 41.083 C 307.039 40.907,306.764 40.833,306.172 40.833 C 305.711 40.833,305.333 40.758,305.333 40.667 C 305.333 40.563,304.361 40.500,302.750 40.500 C 301.139 40.500,300.167 40.563,300.167 40.667 C 300.167 40.758,299.789 40.833,299.328 40.833 C 298.736 40.833,298.461 40.907,298.394 41.083 C 298.339 41.226,298.090 41.333,297.816 41.333 C 297.550 41.333,297.333 41.408,297.333 41.500 C 297.333 41.592,297.188 41.667,297.010 41.667 C 296.832 41.667,296.640 41.742,296.583 41.833 C 296.527 41.925,296.335 42.000,296.157 42.000 C 295.979 42.000,295.833 42.075,295.833 42.167 C 295.833 42.258,295.679 42.333,295.490 42.333 C 295.301 42.333,295.193 42.408,295.250 42.500 C 295.307 42.592,295.266 42.667,295.160 42.667 C 295.054 42.667,294.757 42.892,294.500 43.167 C 293.880 43.831,293.833 43.807,293.833 42.833 C 293.833 42.375,293.908 42.000,294.000 42.000 C 294.099 42.000,294.167 41.361,294.167 40.417 C 294.167 39.472,294.234 38.833,294.333 38.833 C 294.430 38.833,294.500 38.306,294.500 37.583 C 294.500 36.861,294.570 36.333,294.667 36.333 C 294.758 36.333,294.833 35.921,294.833 35.417 C 294.833 34.912,294.908 34.500,295.000 34.500 C 295.092 34.500,295.167 34.200,295.167 33.833 C 295.167 33.467,295.242 33.167,295.333 33.167 C 295.425 33.167,295.500 32.867,295.500 32.500 C 295.500 32.133,295.575 31.833,295.667 31.833 C 295.758 31.833,295.833 31.571,295.833 31.250 C 295.833 30.929,295.908 30.667,296.000 30.667 C 296.092 30.667,296.167 30.442,296.167 30.167 C 296.167 29.892,296.242 29.667,296.333 29.667 C 296.425 29.667,296.500 29.525,296.500 29.351 C 296.500 29.178,296.612 28.992,296.750 28.940 C 296.887 28.887,297.000 28.691,297.000 28.505 C 297.000 28.319,297.075 28.167,297.167 28.167 C 297.258 28.167,297.333 28.017,297.333 27.833 C 297.333 27.650,297.408 27.500,297.500 27.500 C 297.592 27.500,297.667 27.350,297.667 27.167 C 297.667 26.983,297.742 26.833,297.833 26.833 C 297.925 26.833,298.000 26.683,298.000 26.500 C 298.000 26.317,298.075 26.167,298.167 26.167 C 298.258 26.167,298.333 26.033,298.333 25.870 C 298.333 25.707,298.483 25.465,298.667 25.333 C 298.850 25.201,299.000 25.014,299.000 24.917 C 299.000 24.820,299.150 24.632,299.333 24.500 C 299.517 24.368,299.667 24.126,299.667 23.963 C 299.667 23.790,299.790 23.667,299.963 23.667 C 300.126 23.667,300.383 23.535,300.535 23.375 C 300.969 22.915,301.305 22.667,301.493 22.667 C 301.749 22.667,302.333 22.037,302.333 21.761 C 302.333 21.424,303.124 20.903,303.990 20.669 C 306.033 20.119,308.361 21.464,310.814 24.610 C 311.618 25.642,311.982 25.912,313.043 26.264 C 313.487 26.412,313.940 26.675,314.049 26.850 C 314.158 27.024,314.308 27.167,314.383 27.167 C 314.458 27.167,314.473 27.092,314.417 27.000 C 314.358 26.905,314.498 26.833,314.740 26.833 C 314.975 26.833,315.167 26.758,315.167 26.667 C 315.167 26.575,315.277 26.500,315.411 26.500 C 315.771 26.500,317.000 25.313,317.000 24.965 C 317.000 24.801,317.075 24.667,317.167 24.667 C 317.264 24.667,317.333 24.111,317.333 23.333 C 317.333 22.556,317.264 22.000,317.167 22.000 C 317.075 22.000,317.000 21.810,317.000 21.577 C 317.000 21.128,316.616 20.424,316.129 19.980 C 315.967 19.832,315.833 19.623,315.833 19.517 C 315.833 19.410,315.590 19.067,315.292 18.754 C 314.994 18.442,314.480 17.901,314.151 17.552 C 313.368 16.722,312.879 16.333,312.618 16.333 C 312.502 16.333,312.299 16.183,312.167 16.000 C 312.035 15.817,311.793 15.667,311.630 15.667 C 311.467 15.667,311.333 15.592,311.333 15.500 C 311.333 15.408,311.183 15.333,311.000 15.333 C 310.817 15.333,310.667 15.258,310.667 15.167 C 310.667 15.075,310.404 15.000,310.083 15.000 C 309.676 15.000,309.500 14.925,309.500 14.750 C 309.500 14.569,309.315 14.500,308.833 14.500 C 308.467 14.500,308.167 14.425,308.167 14.333 C 308.167 14.228,307.000 14.167,305.000 14.167 C 303.000 14.167,301.833 14.228,301.833 14.333 M330.667 16.500 C 330.667 16.592,330.329 16.667,329.917 16.667 C 329.504 16.667,329.167 16.742,329.167 16.833 C 329.167 16.925,328.958 17.000,328.703 17.000 C 328.431 17.000,328.141 17.138,328.000 17.333 C 327.868 17.517,327.660 17.667,327.537 17.667 C 327.365 17.667,327.378 17.774,327.594 18.140 C 327.865 18.599,327.851 18.690,327.117 21.182 C 325.532 26.561,324.833 31.106,324.833 36.034 C 324.833 38.922,324.972 39.299,326.264 39.931 C 327.199 40.388,330.151 40.712,329.916 40.332 C 329.860 40.241,329.964 40.167,330.147 40.167 C 330.330 40.167,330.527 40.092,330.583 40.000 C 330.640 39.908,330.836 39.833,331.020 39.833 C 331.203 39.833,331.307 39.759,331.250 39.667 C 330.792 38.925,334.339 37.667,336.890 37.667 C 345.912 37.667,352.342 50.898,347.785 60.083 C 346.655 62.361,344.176 64.448,343.777 63.458 C 343.729 63.340,343.687 63.384,343.680 63.559 C 343.671 63.760,343.581 63.836,343.423 63.775 C 343.281 63.721,343.044 63.854,342.857 64.091 C 342.680 64.316,342.455 64.500,342.356 64.500 C 342.257 64.500,341.910 64.650,341.583 64.833 C 341.257 65.017,340.880 65.167,340.745 65.167 C 340.610 65.167,340.500 65.242,340.500 65.333 C 340.500 65.425,340.275 65.500,340.000 65.500 C 339.725 65.500,339.500 65.575,339.500 65.667 C 339.500 65.758,339.162 65.833,338.750 65.833 C 338.337 65.833,338.000 65.908,338.000 66.000 C 338.000 66.103,337.083 66.167,335.583 66.167 C 334.083 66.167,333.167 66.103,333.167 66.000 C 333.167 65.908,332.904 65.833,332.583 65.833 C 332.262 65.833,332.000 65.758,332.000 65.667 C 332.000 65.575,331.850 65.500,331.667 65.500 C 331.483 65.500,331.333 65.425,331.333 65.333 C 331.333 65.242,331.218 65.167,331.077 65.167 C 330.768 65.167,327.833 62.263,327.833 61.957 C 327.833 61.838,327.683 61.632,327.500 61.500 C 327.317 61.368,327.167 61.089,327.167 60.880 C 327.167 60.671,327.110 60.500,327.041 60.500 C 326.971 60.500,326.815 60.275,326.693 60.000 C 326.572 59.725,326.366 59.500,326.236 59.500 C 326.106 59.500,326.000 59.382,326.000 59.238 C 326.000 58.901,325.599 58.500,325.262 58.500 C 325.118 58.500,325.000 58.425,325.000 58.333 C 325.000 58.241,324.556 58.167,324.000 58.167 C 323.444 58.167,323.000 58.241,323.000 58.333 C 323.000 58.425,322.813 58.500,322.583 58.500 C 322.354 58.500,322.167 58.575,322.167 58.667 C 322.167 58.758,322.017 58.833,321.833 58.833 C 321.430 58.833,321.423 58.895,321.770 59.424 C 322.004 59.780,322.015 60.005,321.854 61.086 C 321.099 66.167,324.572 70.337,330.963 72.024 C 333.643 72.731,343.165 72.808,344.667 72.134 C 344.988 71.990,345.512 71.773,345.833 71.652 C 346.154 71.530,346.508 71.353,346.619 71.257 C 347.214 70.747,347.335 70.667,347.509 70.667 C 347.614 70.667,347.910 70.442,348.167 70.167 C 348.424 69.892,348.715 69.667,348.815 69.667 C 349.047 69.667,349.562 69.249,350.318 68.448 C 350.647 68.099,351.160 67.558,351.458 67.246 C 351.756 66.933,352.000 66.581,352.000 66.462 C 352.000 66.343,352.188 66.105,352.417 65.933 C 352.646 65.761,352.833 65.552,352.833 65.470 C 352.833 65.387,352.983 65.158,353.167 64.962 C 353.350 64.765,353.500 64.468,353.500 64.302 C 353.500 64.136,353.575 64.000,353.667 64.000 C 353.758 64.000,353.833 63.850,353.833 63.667 C 353.833 63.483,353.908 63.333,354.000 63.333 C 354.092 63.333,354.167 63.183,354.167 63.000 C 354.167 62.817,354.242 62.667,354.333 62.667 C 354.425 62.667,354.500 62.517,354.500 62.333 C 354.500 62.150,354.575 62.000,354.667 62.000 C 354.758 62.000,354.833 61.737,354.833 61.417 C 354.833 61.096,354.908 60.833,355.000 60.833 C 355.092 60.833,355.167 60.608,355.167 60.333 C 355.167 60.058,355.242 59.833,355.333 59.833 C 355.425 59.833,355.500 59.541,355.500 59.184 C 355.500 58.762,355.587 58.502,355.750 58.440 C 355.939 58.367,356.000 58.060,356.000 57.172 C 356.000 56.502,356.071 56.000,356.167 56.000 C 356.271 56.000,356.333 54.920,356.333 53.093 C 356.333 51.335,356.267 50.146,356.167 50.083 C 356.075 50.027,356.000 49.428,356.000 48.752 C 356.000 47.883,355.927 47.451,355.750 47.274 C 355.613 47.136,355.500 46.756,355.500 46.429 C 355.500 46.101,355.425 45.833,355.333 45.833 C 355.242 45.833,355.167 45.538,355.167 45.177 C 355.167 44.815,355.092 44.473,355.000 44.417 C 354.908 44.360,354.833 44.093,354.833 43.823 C 354.833 43.554,354.758 43.333,354.667 43.333 C 354.575 43.333,354.500 43.183,354.500 43.000 C 354.500 42.817,354.425 42.667,354.333 42.667 C 354.242 42.667,354.167 42.442,354.167 42.167 C 354.167 41.892,354.092 41.667,354.000 41.667 C 353.908 41.667,353.833 41.561,353.833 41.432 C 353.833 41.117,353.140 39.833,352.969 39.833 C 352.894 39.833,352.833 39.683,352.833 39.500 C 352.833 39.317,352.753 39.167,352.655 39.167 C 352.389 39.167,352.000 38.728,352.000 38.429 C 352.000 38.285,351.925 38.167,351.833 38.167 C 351.742 38.167,351.667 38.084,351.667 37.984 C 351.667 37.883,351.442 37.590,351.167 37.333 C 350.892 37.076,350.667 36.780,350.667 36.676 C 350.667 36.395,349.890 35.667,349.591 35.667 C 349.449 35.667,349.333 35.592,349.333 35.500 C 349.333 35.408,349.248 35.333,349.144 35.333 C 348.945 35.333,348.167 34.505,348.167 34.292 C 348.167 34.223,348.033 34.167,347.870 34.167 C 347.707 34.167,347.465 34.017,347.333 33.833 C 347.201 33.650,346.960 33.500,346.797 33.500 C 346.633 33.500,346.500 33.425,346.500 33.333 C 346.500 33.242,346.313 33.167,346.083 33.167 C 345.854 33.167,345.667 33.092,345.667 33.000 C 345.667 32.908,345.517 32.833,345.333 32.833 C 345.150 32.833,345.000 32.758,345.000 32.667 C 345.000 32.575,344.775 32.500,344.500 32.500 C 344.225 32.500,344.000 32.425,344.000 32.333 C 344.000 32.242,343.775 32.167,343.500 32.167 C 343.225 32.167,343.000 32.092,343.000 32.000 C 343.000 31.908,342.662 31.833,342.250 31.833 C 341.837 31.833,341.500 31.758,341.500 31.667 C 341.500 31.561,340.222 31.500,338.000 31.500 C 335.778 31.500,334.500 31.561,334.500 31.667 C 334.500 31.759,334.059 31.833,333.510 31.833 C 332.965 31.833,332.473 31.908,332.417 32.000 C 332.073 32.557,331.667 32.151,331.667 31.250 C 331.667 30.746,331.742 30.333,331.833 30.333 C 331.926 30.333,332.000 29.889,332.000 29.333 C 332.000 28.778,332.074 28.333,332.167 28.333 C 332.258 28.333,332.333 27.996,332.333 27.583 C 332.333 27.171,332.408 26.833,332.500 26.833 C 332.592 26.833,332.667 26.608,332.667 26.333 C 332.667 26.000,332.750 25.833,332.917 25.833 C 333.054 25.833,333.169 25.702,333.172 25.542 C 333.178 25.196,333.550 24.667,333.787 24.667 C 333.879 24.667,333.920 24.488,333.878 24.270 C 333.598 22.803,336.852 22.983,342.425 24.742 C 343.988 25.235,346.186 25.825,347.309 26.052 C 348.433 26.279,349.479 26.579,349.634 26.718 C 350.130 27.163,350.832 26.867,351.875 25.776 L 352.833 24.772 352.833 23.386 C 352.833 22.265,352.786 22.000,352.583 22.000 C 352.444 22.000,352.333 21.852,352.333 21.667 C 352.333 21.483,352.258 21.333,352.167 21.333 C 352.075 21.333,352.000 21.253,352.000 21.155 C 352.000 20.889,351.561 20.500,351.262 20.500 C 351.118 20.500,351.000 20.425,351.000 20.333 C 351.000 20.242,350.850 20.167,350.667 20.167 C 350.483 20.167,350.333 20.092,350.333 20.000 C 350.333 19.908,350.183 19.833,350.000 19.833 C 349.817 19.833,349.667 19.758,349.667 19.667 C 349.667 19.575,349.479 19.500,349.250 19.500 C 349.021 19.500,348.833 19.425,348.833 19.333 C 348.833 19.242,348.683 19.167,348.500 19.167 C 348.317 19.167,348.167 19.092,348.167 19.000 C 348.167 18.908,347.942 18.833,347.667 18.833 C 347.392 18.833,347.167 18.758,347.167 18.667 C 347.167 18.575,346.936 18.500,346.655 18.500 C 346.373 18.500,346.030 18.387,345.893 18.250 C 345.755 18.112,345.423 18.000,345.155 18.000 C 344.886 18.000,344.667 17.925,344.667 17.833 C 344.667 17.742,344.446 17.667,344.177 17.667 C 343.907 17.667,343.640 17.592,343.583 17.500 C 343.527 17.408,343.110 17.333,342.657 17.333 C 342.204 17.333,341.833 17.258,341.833 17.167 C 341.833 17.075,341.463 17.000,341.010 17.000 C 340.557 17.000,340.140 16.925,340.083 16.833 C 340.027 16.742,339.310 16.667,338.490 16.667 C 337.608 16.667,337.000 16.599,337.000 16.500 C 337.000 16.395,335.833 16.333,333.833 16.333 C 331.833 16.333,330.667 16.395,330.667 16.500 M260.417 18.667 C 260.360 18.758,259.868 18.833,259.323 18.833 C 258.774 18.833,258.333 18.908,258.333 19.000 C 258.333 19.092,257.996 19.167,257.583 19.167 C 257.171 19.167,256.833 19.242,256.833 19.333 C 256.833 19.425,256.608 19.500,256.333 19.500 C 256.058 19.500,255.833 19.575,255.833 19.667 C 255.833 19.758,255.683 19.833,255.500 19.833 C 255.317 19.833,255.167 19.908,255.167 20.000 C 255.167 20.092,255.017 20.167,254.833 20.167 C 254.478 20.167,254.357 20.784,254.652 21.092 C 254.735 21.179,254.829 21.952,254.860 22.810 C 254.966 25.725,256.629 26.234,261.112 24.725 C 266.782 22.817,271.032 25.463,271.055 30.917 C 271.069 34.073,269.848 36.332,268.257 36.093 C 267.763 36.019,267.500 36.041,267.500 36.156 C 267.500 36.254,267.350 36.333,267.167 36.333 C 266.983 36.333,266.833 36.408,266.833 36.500 C 266.833 36.599,266.222 36.667,265.333 36.667 C 264.444 36.667,263.833 36.599,263.833 36.500 C 263.833 36.408,263.533 36.333,263.167 36.333 C 262.800 36.333,262.500 36.258,262.500 36.167 C 262.500 36.075,262.200 36.000,261.833 36.000 C 261.467 36.000,261.167 35.925,261.167 35.833 C 261.167 35.496,256.607 35.624,256.393 35.967 C 256.250 36.195,256.260 36.341,256.436 36.582 C 256.581 36.779,256.667 37.336,256.668 38.074 C 256.670 40.979,257.652 41.770,261.750 42.164 C 268.820 42.845,273.202 47.191,273.460 53.778 C 273.632 58.160,271.449 62.636,269.210 62.497 C 268.649 62.462,268.000 62.653,268.000 62.853 C 268.000 62.934,267.887 63.000,267.750 63.000 C 267.612 63.000,267.500 63.075,267.500 63.167 C 267.500 63.258,267.350 63.333,267.167 63.333 C 266.983 63.333,266.833 63.408,266.833 63.500 C 266.833 63.592,266.646 63.667,266.417 63.667 C 266.188 63.667,266.000 63.742,266.000 63.833 C 266.000 63.925,265.855 64.000,265.679 64.000 C 265.502 64.000,265.245 64.112,265.107 64.250 C 264.970 64.388,264.664 64.500,264.429 64.500 C 264.193 64.500,264.000 64.575,264.000 64.667 C 264.000 64.761,263.528 64.833,262.917 64.833 C 262.306 64.833,261.833 64.906,261.833 65.000 C 261.833 65.099,261.194 65.167,260.250 65.167 C 259.306 65.167,258.667 65.099,258.667 65.000 C 258.667 64.908,258.254 64.833,257.750 64.833 C 257.246 64.833,256.833 64.758,256.833 64.667 C 256.833 64.575,256.640 64.500,256.405 64.500 C 256.169 64.500,255.864 64.387,255.726 64.250 C 255.589 64.112,255.332 64.000,255.155 64.000 C 254.978 64.000,254.833 63.925,254.833 63.833 C 254.833 63.742,254.646 63.667,254.417 63.667 C 254.042 63.667,254.000 63.600,254.000 63.000 C 254.000 62.633,253.925 62.333,253.833 62.333 C 253.742 62.333,253.667 62.108,253.667 61.833 C 253.667 61.558,253.604 61.333,253.528 61.333 C 253.452 61.333,253.289 61.146,253.167 60.917 C 253.044 60.688,252.806 60.500,252.639 60.500 C 252.471 60.500,252.333 60.425,252.333 60.333 C 252.333 60.242,252.108 60.167,251.833 60.167 C 251.558 60.167,251.333 60.092,251.333 60.000 C 251.333 59.904,250.806 59.833,250.083 59.833 C 249.361 59.833,248.833 59.904,248.833 60.000 C 248.833 60.092,248.665 60.169,248.458 60.172 C 247.513 60.185,247.352 60.774,247.273 64.500 C 247.201 67.850,249.690 69.737,255.429 70.687 C 257.242 70.987,265.034 70.959,267.172 70.646 C 268.240 70.489,268.907 70.464,269.209 70.570 C 269.642 70.722,269.843 70.671,270.873 70.147 C 271.032 70.066,271.276 70.000,271.414 70.000 C 271.553 70.000,271.667 69.925,271.667 69.833 C 271.667 69.742,271.817 69.667,272.000 69.667 C 272.183 69.667,272.333 69.592,272.333 69.500 C 272.333 69.408,272.467 69.333,272.630 69.333 C 272.793 69.333,273.035 69.183,273.167 69.000 C 273.299 68.817,273.540 68.667,273.703 68.667 C 273.867 68.667,274.000 68.604,274.000 68.528 C 274.000 68.452,274.188 68.289,274.417 68.167 C 274.646 68.044,274.833 67.875,274.833 67.790 C 274.833 67.706,275.455 67.025,276.214 66.277 C 276.973 65.529,277.698 64.710,277.825 64.458 C 277.952 64.206,278.119 64.000,278.195 64.000 C 278.271 64.000,278.333 63.850,278.333 63.667 C 278.333 63.483,278.408 63.333,278.500 63.333 C 278.592 63.333,278.667 63.183,278.667 63.000 C 278.667 62.817,278.742 62.667,278.833 62.667 C 278.925 62.667,279.000 62.442,279.000 62.167 C 279.000 61.892,279.075 61.667,279.167 61.667 C 279.258 61.667,279.333 61.479,279.333 61.250 C 279.333 61.021,279.408 60.833,279.500 60.833 C 279.592 60.833,279.667 60.533,279.667 60.167 C 279.667 59.800,279.742 59.500,279.833 59.500 C 279.927 59.500,280.000 59.034,280.000 58.434 C 280.000 57.641,280.064 57.344,280.250 57.273 C 280.456 57.194,280.500 56.754,280.500 54.750 C 280.500 52.746,280.456 52.306,280.250 52.227 C 280.064 52.156,280.000 51.859,280.000 51.066 C 280.000 50.466,279.927 50.000,279.833 50.000 C 279.742 50.000,279.667 49.700,279.667 49.333 C 279.667 48.967,279.592 48.667,279.500 48.667 C 279.408 48.667,279.333 48.517,279.333 48.333 C 279.333 48.150,279.258 48.000,279.167 48.000 C 279.075 48.000,279.000 47.737,279.000 47.417 C 279.000 47.096,278.925 46.833,278.833 46.833 C 278.742 46.833,278.667 46.700,278.667 46.537 C 278.667 46.374,278.517 46.132,278.333 46.000 C 278.150 45.868,278.000 45.643,278.000 45.500 C 278.000 45.357,277.850 45.132,277.667 45.000 C 277.483 44.868,277.333 44.656,277.333 44.529 C 277.333 44.276,273.886 40.833,273.632 40.833 C 273.113 40.833,272.985 40.333,273.399 39.919 C 273.630 39.688,273.865 39.500,273.922 39.500 C 274.026 39.500,274.993 38.515,275.542 37.850 C 275.702 37.655,275.833 37.401,275.833 37.285 C 275.833 37.169,275.983 36.965,276.167 36.833 C 276.350 36.701,276.500 36.460,276.500 36.297 C 276.500 36.133,276.575 36.000,276.667 36.000 C 276.758 36.000,276.833 35.783,276.833 35.518 C 276.833 35.243,276.941 34.994,277.083 34.940 C 277.229 34.884,277.333 34.634,277.333 34.339 C 277.333 34.061,277.408 33.833,277.500 33.833 C 277.592 33.833,277.667 33.463,277.667 33.010 C 277.667 32.557,277.742 32.140,277.833 32.083 C 277.925 32.027,278.000 31.385,278.000 30.657 C 278.000 29.886,277.930 29.333,277.833 29.333 C 277.741 29.333,277.667 28.892,277.667 28.343 C 277.667 27.799,277.592 27.307,277.500 27.250 C 277.408 27.193,277.333 26.926,277.333 26.657 C 277.333 26.332,277.249 26.167,277.083 26.167 C 276.917 26.167,276.833 26.000,276.833 25.667 C 276.833 25.392,276.758 25.167,276.667 25.167 C 276.575 25.167,276.500 25.031,276.500 24.865 C 276.500 24.699,276.350 24.402,276.167 24.205 C 275.983 24.008,275.833 23.768,275.833 23.670 C 275.833 23.443,274.063 21.667,273.837 21.667 C 273.743 21.667,273.667 21.588,273.667 21.492 C 273.667 21.225,272.881 20.500,272.591 20.500 C 272.449 20.500,272.333 20.425,272.333 20.333 C 272.333 20.242,272.183 20.167,272.000 20.167 C 271.817 20.167,271.667 20.092,271.667 20.000 C 271.667 19.908,271.517 19.833,271.333 19.833 C 271.150 19.833,271.000 19.758,271.000 19.667 C 271.000 19.575,270.813 19.500,270.583 19.500 C 270.354 19.500,270.167 19.425,270.167 19.333 C 270.167 19.242,269.942 19.167,269.667 19.167 C 269.392 19.167,269.167 19.092,269.167 19.000 C 269.167 18.908,268.754 18.833,268.250 18.833 C 267.746 18.833,267.333 18.758,267.333 18.667 C 267.333 18.561,266.087 18.500,263.927 18.500 C 261.835 18.500,260.480 18.564,260.417 18.667 M17.000 24.167 C 17.000 24.258,17.262 24.333,17.583 24.333 C 17.904 24.333,18.167 24.408,18.167 24.500 C 18.167 24.592,18.317 24.667,18.500 24.667 C 18.683 24.667,18.833 24.735,18.833 24.819 C 18.833 24.976,21.121 26.167,21.423 26.167 C 21.517 26.167,21.701 26.317,21.833 26.500 C 21.965 26.683,22.207 26.833,22.370 26.833 C 22.533 26.833,22.667 26.908,22.667 27.000 C 22.667 27.092,22.779 27.167,22.917 27.167 C 23.054 27.167,23.167 27.223,23.168 27.292 C 23.169 27.421,23.960 27.833,24.207 27.833 C 24.340 27.833,24.543 27.979,25.077 28.458 C 25.205 28.573,25.427 28.667,25.571 28.667 C 25.715 28.667,25.833 28.742,25.833 28.833 C 25.833 28.925,25.967 29.000,26.130 29.000 C 26.293 29.000,26.535 29.150,26.667 29.333 C 26.799 29.517,27.082 29.667,27.297 29.667 C 27.514 29.667,27.641 29.740,27.583 29.833 C 27.527 29.925,27.621 30.000,27.792 30.000 C 27.964 30.000,28.265 30.150,28.462 30.333 C 28.658 30.517,28.918 30.667,29.040 30.667 C 29.161 30.667,29.368 30.817,29.500 31.000 C 29.632 31.183,29.827 31.333,29.933 31.333 C 30.039 31.333,30.219 31.446,30.333 31.583 C 30.447 31.721,30.649 31.833,30.782 31.833 C 30.915 31.833,31.136 31.946,31.274 32.083 C 31.411 32.220,31.722 32.383,31.964 32.444 C 32.207 32.504,32.553 32.692,32.734 32.860 C 32.915 33.029,33.161 33.167,33.281 33.167 C 33.402 33.167,33.500 33.242,33.500 33.333 C 33.500 33.425,33.650 33.500,33.833 33.500 C 34.017 33.500,34.167 33.575,34.167 33.667 C 34.167 33.758,34.338 33.833,34.547 33.833 C 34.755 33.833,35.035 33.983,35.167 34.167 C 35.299 34.350,35.540 34.500,35.703 34.500 C 35.867 34.500,36.000 34.577,36.000 34.672 C 36.000 34.766,36.131 34.894,36.292 34.955 C 36.452 35.016,36.729 35.202,36.906 35.367 C 37.084 35.532,37.354 35.667,37.506 35.667 C 37.657 35.667,37.917 35.817,38.083 36.000 C 38.249 36.183,38.486 36.333,38.609 36.333 C 38.732 36.333,38.833 36.408,38.833 36.500 C 38.833 36.592,38.983 36.667,39.167 36.667 C 39.350 36.667,39.500 36.742,39.500 36.833 C 39.500 36.925,39.650 37.000,39.833 37.000 C 40.017 37.000,40.167 37.075,40.167 37.167 C 40.167 37.258,40.354 37.333,40.583 37.333 C 40.813 37.333,41.000 37.408,41.000 37.500 C 41.000 37.592,41.150 37.667,41.333 37.667 C 41.519 37.667,41.667 37.778,41.667 37.917 C 41.667 38.054,41.765 38.167,41.885 38.167 C 42.005 38.167,42.265 38.317,42.462 38.500 C 42.658 38.683,42.935 38.833,43.076 38.833 C 43.218 38.833,43.333 38.894,43.333 38.969 C 43.333 39.043,43.596 39.207,43.917 39.333 C 44.237 39.459,44.500 39.623,44.500 39.698 C 44.500 39.772,44.633 39.833,44.797 39.833 C 44.960 39.833,45.201 39.983,45.333 40.167 C 45.465 40.350,45.707 40.500,45.870 40.500 C 46.033 40.500,46.167 40.575,46.167 40.667 C 46.167 40.758,46.245 40.833,46.340 40.833 C 46.536 40.833,46.768 41.012,47.587 41.792 C 47.900 42.090,48.214 42.334,48.286 42.335 C 48.358 42.336,48.604 42.574,48.833 42.864 C 49.063 43.154,49.344 43.486,49.458 43.601 C 49.573 43.716,49.667 43.927,49.667 44.071 C 49.667 44.215,49.742 44.333,49.833 44.333 C 49.925 44.333,50.000 44.483,50.000 44.667 C 50.000 44.850,50.075 45.000,50.167 45.000 C 50.258 45.000,50.333 45.102,50.333 45.227 C 50.333 45.379,50.196 45.428,49.917 45.374 C 49.534 45.301,49.500 45.344,49.500 45.902 C 49.500 46.327,49.412 46.544,49.209 46.622 C 48.788 46.784,48.167 47.444,48.167 47.730 C 48.167 47.973,47.307 48.500,46.911 48.500 C 46.799 48.500,46.616 48.611,46.503 48.746 C 46.391 48.882,45.894 49.190,45.399 49.432 C 44.905 49.674,44.500 49.939,44.500 50.020 C 44.500 50.100,44.305 50.167,44.068 50.167 C 43.783 50.167,43.607 50.275,43.552 50.485 C 43.507 50.659,43.345 50.848,43.193 50.904 C 42.836 51.035,42.276 51.369,41.927 51.658 C 41.583 51.943,40.165 52.667,39.950 52.667 C 39.861 52.667,39.650 52.827,39.480 53.023 C 39.226 53.316,39.128 53.342,38.919 53.169 C 38.746 53.025,38.667 53.018,38.667 53.146 C 38.667 53.249,38.532 53.333,38.368 53.333 C 38.204 53.333,37.738 53.671,37.333 54.083 C 36.885 54.540,36.448 54.833,36.215 54.833 C 36.005 54.833,35.833 54.924,35.833 55.035 C 35.833 55.480,34.611 56.500,34.077 56.500 C 33.434 56.500,33.279 56.636,33.579 56.937 C 33.733 57.090,34.242 57.171,35.113 57.180 C 35.830 57.187,36.323 57.231,36.208 57.277 C 36.094 57.323,36.000 57.467,36.000 57.597 C 36.000 57.727,35.850 57.833,35.667 57.833 C 35.483 57.833,35.333 57.908,35.333 58.000 C 35.333 58.092,35.183 58.167,35.000 58.167 C 34.817 58.167,34.667 58.242,34.667 58.333 C 34.667 58.425,34.554 58.500,34.417 58.500 C 34.279 58.500,34.167 58.575,34.167 58.667 C 34.167 58.758,34.061 58.833,33.932 58.833 C 33.655 58.833,32.345 59.494,32.028 59.793 C 31.906 59.909,31.751 59.969,31.684 59.927 C 31.616 59.885,31.455 59.997,31.327 60.176 C 31.198 60.354,30.969 60.500,30.817 60.500 C 30.665 60.500,30.447 60.612,30.333 60.750 C 30.219 60.887,30.039 61.000,29.933 61.000 C 29.827 61.000,29.632 61.150,29.500 61.333 C 29.368 61.517,29.126 61.667,28.963 61.667 C 28.800 61.667,28.667 61.742,28.667 61.833 C 28.667 61.925,28.517 62.000,28.333 62.000 C 28.150 62.000,28.000 62.075,28.000 62.167 C 28.000 62.258,27.887 62.333,27.750 62.333 C 27.613 62.333,27.500 62.408,27.500 62.500 C 27.500 62.592,27.350 62.667,27.167 62.667 C 26.983 62.667,26.833 62.725,26.833 62.797 C 26.833 62.869,26.388 63.140,25.843 63.398 C 25.299 63.657,24.725 64.011,24.567 64.184 C 24.410 64.358,24.143 64.500,23.974 64.500 C 23.805 64.500,23.667 64.566,23.667 64.646 C 23.667 64.727,23.442 64.886,23.167 65.000 C 22.892 65.114,22.667 65.273,22.667 65.354 C 22.667 65.434,22.533 65.500,22.370 65.500 C 22.207 65.500,21.965 65.650,21.833 65.833 C 21.701 66.017,21.422 66.167,21.213 66.167 C 21.004 66.167,20.833 66.242,20.833 66.333 C 20.833 66.425,20.683 66.500,20.500 66.500 C 20.317 66.500,20.167 66.575,20.167 66.667 C 20.167 66.758,20.017 66.833,19.833 66.833 C 19.650 66.833,19.500 66.908,19.500 67.000 C 19.500 67.092,19.350 67.167,19.167 67.167 C 18.983 67.167,18.833 67.236,18.833 67.320 C 18.833 67.404,18.608 67.523,18.333 67.583 C 18.058 67.644,17.833 67.754,17.833 67.828 C 17.833 68.147,14.239 68.473,13.947 68.181 C 13.848 68.081,13.662 68.000,13.534 68.000 C 13.291 68.000,12.657 67.384,12.083 66.591 C 11.900 66.337,11.656 66.031,11.542 65.910 C 11.427 65.789,11.333 65.577,11.333 65.438 C 11.333 65.300,11.258 65.140,11.167 65.083 C 11.075 65.027,11.000 64.539,11.000 64.000 C 11.000 63.461,10.925 62.973,10.833 62.917 C 10.726 62.851,10.668 60.266,10.670 55.698 L 10.674 48.583 11.018 49.000 C 11.207 49.229,11.314 49.323,11.255 49.208 C 11.023 48.759,11.856 49.190,12.542 49.873 C 12.794 50.125,13.000 50.245,13.000 50.140 C 13.000 50.035,13.140 50.110,13.311 50.308 C 13.651 50.699,13.916 50.791,13.747 50.458 C 13.689 50.344,13.793 50.422,13.978 50.632 C 14.164 50.843,14.357 51.011,14.408 51.007 C 14.832 50.974,15.001 51.030,15.008 51.208 C 15.013 51.323,15.632 51.717,16.383 52.083 C 17.135 52.450,17.849 52.844,17.970 52.958 C 18.091 53.073,18.298 53.167,18.429 53.167 C 18.560 53.167,18.667 53.242,18.667 53.333 C 18.667 53.425,18.971 53.500,19.343 53.500 C 19.715 53.500,19.977 53.569,19.925 53.653 C 19.799 53.857,21.118 53.762,21.750 53.521 C 22.025 53.416,22.312 53.349,22.387 53.373 C 22.462 53.397,22.599 53.281,22.692 53.116 C 22.828 52.872,22.907 52.854,23.106 53.019 C 23.301 53.181,23.342 53.179,23.301 53.013 C 23.273 52.897,23.396 52.716,23.574 52.609 C 24.325 52.163,25.500 51.158,25.500 50.962 C 25.500 50.884,25.650 50.658,25.833 50.462 C 26.017 50.265,26.167 49.897,26.167 49.645 C 26.167 49.393,26.242 49.140,26.333 49.083 C 26.551 48.949,26.551 47.000,26.333 47.000 C 26.242 47.000,26.167 46.789,26.167 46.531 C 26.167 46.274,26.017 45.902,25.833 45.705 C 25.650 45.508,25.500 45.266,25.500 45.167 C 25.500 44.886,24.224 43.667,23.930 43.667 C 23.785 43.667,23.667 43.592,23.667 43.500 C 23.667 43.408,23.533 43.333,23.370 43.333 C 23.207 43.333,22.965 43.183,22.833 43.000 C 22.701 42.817,22.460 42.667,22.297 42.667 C 22.133 42.667,22.000 42.592,22.000 42.500 C 22.000 42.408,21.887 42.333,21.750 42.333 C 21.613 42.333,21.500 42.258,21.500 42.167 C 21.500 42.075,21.350 42.000,21.167 42.000 C 20.983 42.000,20.833 41.925,20.833 41.833 C 20.833 41.742,20.683 41.667,20.500 41.667 C 20.317 41.667,20.167 41.603,20.167 41.526 C 20.167 41.449,19.885 41.243,19.542 41.068 C 19.198 40.893,18.879 40.706,18.833 40.653 C 18.787 40.600,18.506 40.451,18.208 40.321 C 17.910 40.191,17.667 40.029,17.667 39.959 C 17.667 39.890,17.517 39.833,17.333 39.833 C 17.150 39.833,17.000 39.758,17.000 39.667 C 17.000 39.575,16.867 39.500,16.703 39.500 C 16.540 39.500,16.299 39.350,16.167 39.167 C 16.035 38.983,15.793 38.833,15.630 38.833 C 15.467 38.833,15.333 38.758,15.333 38.667 C 15.333 38.575,15.180 38.500,14.992 38.500 C 14.805 38.500,14.471 38.331,14.250 38.125 C 13.619 37.534,13.358 37.334,13.215 37.330 C 13.143 37.328,12.896 37.179,12.667 37.000 C 12.438 36.821,12.119 36.672,11.958 36.670 C 11.798 36.668,11.667 36.592,11.667 36.500 C 11.667 36.408,11.549 36.333,11.405 36.333 C 10.732 36.333,10.667 35.996,10.667 32.512 C 10.667 30.393,10.728 29.167,10.833 29.167 C 10.925 29.167,11.000 28.759,11.000 28.260 C 11.000 27.761,11.075 27.307,11.167 27.250 C 11.258 27.193,11.333 27.008,11.333 26.837 C 11.333 26.667,11.390 26.503,11.458 26.472 C 11.638 26.392,12.500 25.039,12.500 24.837 C 12.500 24.743,12.650 24.667,12.833 24.667 C 13.017 24.667,13.167 24.592,13.167 24.500 C 13.167 24.408,13.317 24.333,13.500 24.333 C 13.683 24.333,13.833 24.258,13.833 24.167 C 13.833 24.067,14.472 24.000,15.417 24.000 C 16.361 24.000,17.000 24.067,17.000 24.167 M15.500 24.333 C 15.500 24.425,15.603 24.500,15.730 24.500 C 15.856 24.500,16.053 24.613,16.167 24.750 C 16.394 25.024,17.257 25.091,17.409 24.846 C 17.461 24.762,17.266 24.574,16.976 24.430 C 16.386 24.135,15.500 24.078,15.500 24.333 M177.500 25.333 C 177.500 25.431,176.917 25.500,176.083 25.500 C 175.250 25.500,174.667 25.569,174.667 25.667 C 174.667 25.758,174.367 25.833,174.000 25.833 C 173.633 25.833,173.333 25.908,173.333 26.000 C 173.333 26.092,173.108 26.167,172.833 26.167 C 172.558 26.167,172.333 26.242,172.333 26.333 C 172.333 26.425,172.113 26.500,171.843 26.500 C 171.574 26.500,171.307 26.575,171.250 26.667 C 171.193 26.758,171.001 26.833,170.823 26.833 C 170.646 26.833,170.500 26.908,170.500 27.000 C 170.500 27.092,170.350 27.167,170.167 27.167 C 169.983 27.167,169.833 27.242,169.833 27.333 C 169.833 27.425,169.683 27.500,169.500 27.500 C 169.317 27.500,169.167 27.567,169.167 27.649 C 169.167 27.730,168.979 27.844,168.750 27.902 C 168.521 27.959,168.333 28.080,168.333 28.170 C 168.333 28.260,168.200 28.333,168.037 28.333 C 167.874 28.333,167.632 28.483,167.500 28.667 C 167.368 28.850,167.143 29.000,167.000 29.000 C 166.857 29.000,166.632 29.150,166.500 29.333 C 166.114 29.869,166.000 29.728,166.000 28.715 C 166.000 27.790,165.977 27.742,165.163 26.965 L 164.325 26.167 162.445 26.167 L 160.565 26.167 159.949 26.731 L 159.333 27.295 159.333 49.152 L 159.333 71.009 160.079 71.754 L 160.825 72.500 162.595 72.500 C 164.348 72.500,164.371 72.495,164.833 72.000 C 165.090 71.725,165.356 71.500,165.423 71.500 C 165.976 71.500,165.989 71.125,165.995 55.875 C 165.998 45.962,166.057 40.833,166.167 40.833 C 166.258 40.833,166.333 40.533,166.333 40.167 C 166.333 39.800,166.408 39.500,166.500 39.500 C 166.592 39.500,166.667 39.275,166.667 39.000 C 166.667 38.725,166.742 38.500,166.833 38.500 C 166.925 38.500,167.000 38.329,167.000 38.120 C 167.000 37.911,167.150 37.632,167.333 37.500 C 167.517 37.368,167.667 37.164,167.667 37.047 C 167.667 36.746,170.946 33.500,171.250 33.500 C 171.387 33.500,171.500 33.425,171.500 33.333 C 171.500 33.242,171.650 33.167,171.833 33.167 C 172.017 33.167,172.167 33.092,172.167 33.000 C 172.167 32.908,172.279 32.833,172.417 32.833 C 172.554 32.833,172.667 32.758,172.667 32.667 C 172.667 32.575,172.892 32.500,173.167 32.500 C 173.442 32.500,173.667 32.425,173.667 32.333 C 173.667 32.242,173.817 32.167,174.000 32.167 C 174.183 32.167,174.333 32.092,174.333 32.000 C 174.333 31.908,174.629 31.833,174.990 31.833 C 175.351 31.833,175.693 31.758,175.750 31.667 C 175.811 31.567,176.887 31.500,178.417 31.500 C 179.946 31.500,181.022 31.567,181.083 31.667 C 181.140 31.758,181.482 31.833,181.843 31.833 C 182.204 31.833,182.500 31.908,182.500 32.000 C 182.500 32.092,182.650 32.167,182.833 32.167 C 183.017 32.167,183.167 32.242,183.167 32.333 C 183.167 32.425,183.317 32.500,183.500 32.500 C 183.683 32.500,183.833 32.575,183.833 32.667 C 183.833 32.758,183.983 32.833,184.167 32.833 C 184.350 32.833,184.500 32.908,184.500 33.000 C 184.500 33.092,184.657 33.167,184.850 33.167 C 185.042 33.167,185.410 33.392,185.667 33.667 C 185.924 33.942,186.222 34.167,186.329 34.167 C 186.538 34.167,187.000 34.571,187.000 34.755 C 187.000 34.816,187.225 35.076,187.500 35.333 C 187.775 35.590,188.000 35.877,188.000 35.971 C 188.000 36.066,188.188 36.290,188.417 36.470 C 188.646 36.650,188.833 36.902,188.833 37.029 C 188.833 37.156,188.983 37.368,189.167 37.500 C 189.385 37.658,189.500 37.931,189.500 38.297 C 189.500 38.625,189.568 38.811,189.667 38.750 C 189.766 38.689,189.833 38.887,189.833 39.240 C 189.833 39.566,189.908 39.833,190.000 39.833 C 190.092 39.833,190.167 40.246,190.167 40.750 C 190.167 41.254,190.242 41.667,190.333 41.667 C 190.443 41.667,190.500 46.713,190.500 56.473 L 190.500 71.279 191.180 71.889 L 191.861 72.500 193.768 72.500 L 195.675 72.500 196.421 71.754 L 197.167 71.009 197.167 55.754 C 197.167 45.696,197.223 40.500,197.333 40.500 C 197.425 40.500,197.500 40.200,197.500 39.833 C 197.500 39.467,197.575 39.167,197.667 39.167 C 197.758 39.167,197.833 39.017,197.833 38.833 C 197.833 38.650,197.908 38.500,198.000 38.500 C 198.092 38.500,198.167 38.325,198.167 38.111 C 198.167 37.868,198.322 37.640,198.583 37.500 C 198.813 37.377,199.000 37.173,199.000 37.046 C 199.000 36.919,199.450 36.373,200.000 35.833 C 200.550 35.293,201.000 34.805,201.000 34.747 C 201.000 34.576,201.462 34.167,201.655 34.167 C 201.753 34.167,201.833 34.092,201.833 34.000 C 201.833 33.908,201.967 33.833,202.130 33.833 C 202.293 33.833,202.535 33.683,202.667 33.500 C 202.799 33.317,203.040 33.167,203.203 33.167 C 203.367 33.167,203.501 33.110,203.501 33.042 C 203.503 32.892,204.310 32.500,204.617 32.500 C 204.736 32.500,204.833 32.425,204.833 32.333 C 204.833 32.242,205.096 32.167,205.417 32.167 C 205.737 32.167,206.000 32.092,206.000 32.000 C 206.000 31.908,206.258 31.833,206.573 31.833 C 206.889 31.833,207.193 31.758,207.250 31.667 C 207.388 31.443,212.612 31.443,212.750 31.667 C 212.807 31.758,213.036 31.833,213.260 31.833 C 213.484 31.833,213.667 31.908,213.667 32.000 C 213.667 32.092,213.929 32.167,214.250 32.167 C 214.571 32.167,214.833 32.242,214.833 32.333 C 214.833 32.425,214.983 32.500,215.167 32.500 C 215.350 32.500,215.500 32.575,215.500 32.667 C 215.500 32.758,215.633 32.833,215.797 32.833 C 215.960 32.833,216.201 32.983,216.333 33.167 C 216.465 33.350,216.690 33.500,216.833 33.500 C 216.976 33.500,217.201 33.650,217.333 33.833 C 217.465 34.017,217.652 34.167,217.747 34.167 C 217.843 34.167,218.070 34.369,218.252 34.615 C 218.434 34.862,218.902 35.385,219.292 35.777 C 219.681 36.170,220.000 36.589,220.000 36.709 C 220.000 36.828,220.150 37.035,220.333 37.167 C 220.517 37.299,220.667 37.536,220.667 37.694 C 220.667 37.851,220.742 38.027,220.833 38.083 C 220.925 38.140,221.000 38.372,221.000 38.598 C 221.000 38.825,221.112 39.054,221.250 39.106 C 221.413 39.169,221.500 39.428,221.500 39.851 C 221.500 40.208,221.575 40.500,221.667 40.500 C 221.777 40.500,221.833 45.696,221.833 55.754 L 221.833 71.009 222.579 71.754 L 223.325 72.500 225.095 72.500 C 226.848 72.500,226.871 72.495,227.333 72.000 C 227.590 71.725,227.851 71.500,227.912 71.500 C 228.499 71.500,228.500 71.470,228.500 54.929 C 228.500 44.310,228.443 38.833,228.333 38.833 C 228.242 38.833,228.167 38.456,228.167 37.995 C 228.167 37.403,228.093 37.128,227.917 37.060 C 227.774 37.006,227.667 36.757,227.667 36.482 C 227.667 36.217,227.592 36.000,227.500 36.000 C 227.408 36.000,227.333 35.850,227.333 35.667 C 227.333 35.483,227.258 35.333,227.167 35.333 C 227.075 35.333,227.000 35.113,227.000 34.843 C 227.000 34.574,226.925 34.307,226.833 34.250 C 226.742 34.193,226.667 34.029,226.667 33.885 C 226.667 33.740,226.521 33.496,226.344 33.342 C 226.166 33.188,225.997 32.955,225.969 32.824 C 225.940 32.694,225.710 32.387,225.458 32.143 C 225.206 31.899,225.000 31.648,225.000 31.584 C 225.000 31.364,224.377 30.679,224.272 30.783 C 224.214 30.841,224.167 30.798,224.167 30.687 C 224.167 30.431,223.411 29.667,223.158 29.667 C 223.053 29.667,222.757 29.442,222.500 29.167 C 222.243 28.892,221.913 28.667,221.766 28.667 C 221.620 28.667,221.500 28.592,221.500 28.500 C 221.500 28.408,221.396 28.333,221.268 28.333 C 221.140 28.333,220.992 28.221,220.940 28.083 C 220.887 27.946,220.729 27.833,220.589 27.833 C 220.448 27.833,220.333 27.758,220.333 27.667 C 220.333 27.575,220.218 27.500,220.076 27.500 C 219.935 27.500,219.658 27.350,219.462 27.167 C 219.265 26.983,218.930 26.833,218.719 26.833 C 218.507 26.833,218.333 26.758,218.333 26.667 C 218.333 26.575,218.146 26.500,217.917 26.500 C 217.688 26.500,217.500 26.425,217.500 26.333 C 217.500 26.242,217.275 26.167,217.000 26.167 C 216.725 26.167,216.500 26.092,216.500 26.000 C 216.500 25.908,216.200 25.833,215.833 25.833 C 215.467 25.833,215.167 25.758,215.167 25.667 C 215.167 25.569,214.583 25.500,213.750 25.500 C 212.917 25.500,212.333 25.431,212.333 25.333 C 212.333 25.233,211.639 25.167,210.583 25.167 C 209.528 25.167,208.833 25.233,208.833 25.333 C 208.833 25.433,208.194 25.500,207.250 25.500 C 206.306 25.500,205.667 25.567,205.667 25.667 C 205.667 25.758,205.254 25.833,204.750 25.833 C 204.246 25.833,203.833 25.908,203.833 26.000 C 203.833 26.092,203.608 26.167,203.333 26.167 C 203.058 26.167,202.833 26.242,202.833 26.333 C 202.833 26.425,202.608 26.500,202.333 26.500 C 202.058 26.500,201.833 26.575,201.833 26.667 C 201.833 26.758,201.646 26.833,201.417 26.833 C 201.188 26.833,201.000 26.908,201.000 27.000 C 201.000 27.092,200.850 27.167,200.667 27.167 C 200.483 27.167,200.333 27.242,200.333 27.333 C 200.333 27.425,200.183 27.500,200.000 27.500 C 199.817 27.500,199.667 27.575,199.667 27.667 C 199.667 27.758,199.552 27.833,199.411 27.833 C 199.271 27.833,199.113 27.946,199.060 28.083 C 199.008 28.221,198.822 28.333,198.649 28.333 C 198.475 28.333,198.333 28.408,198.333 28.500 C 198.333 28.592,198.221 28.667,198.083 28.667 C 197.946 28.667,197.833 28.742,197.833 28.833 C 197.833 28.925,197.719 29.000,197.580 29.000 C 197.300 29.000,195.167 31.060,195.167 31.330 C 195.167 31.424,195.088 31.500,194.992 31.500 C 194.725 31.500,194.000 32.286,194.000 32.576 C 194.000 32.722,193.856 32.833,193.667 32.833 C 193.475 32.833,193.333 32.722,193.333 32.572 C 193.333 32.286,190.117 29.000,189.836 29.000 C 189.741 29.000,189.431 28.777,189.146 28.505 C 188.861 28.233,188.487 27.965,188.314 27.911 C 188.141 27.856,188.000 27.741,188.000 27.655 C 188.000 27.570,187.850 27.500,187.667 27.500 C 187.483 27.500,187.333 27.425,187.333 27.333 C 187.333 27.242,187.183 27.167,187.000 27.167 C 186.817 27.167,186.667 27.092,186.667 27.000 C 186.667 26.908,186.517 26.833,186.333 26.833 C 186.150 26.833,186.000 26.758,186.000 26.667 C 186.000 26.575,185.854 26.500,185.677 26.500 C 185.499 26.500,185.307 26.425,185.250 26.333 C 185.193 26.242,184.926 26.167,184.657 26.167 C 184.387 26.167,184.167 26.092,184.167 26.000 C 184.167 25.908,183.942 25.833,183.667 25.833 C 183.392 25.833,183.167 25.758,183.167 25.667 C 183.167 25.570,182.639 25.500,181.917 25.500 C 181.194 25.500,180.667 25.430,180.667 25.333 C 180.667 25.234,180.028 25.167,179.083 25.167 C 178.139 25.167,177.500 25.234,177.500 25.333 M129.500 26.667 C 129.500 26.758,129.422 26.833,129.326 26.833 C 129.230 26.833,128.967 27.017,128.742 27.242 L 128.333 27.652 128.333 49.296 L 128.333 70.941 129.169 71.720 L 130.006 72.500 131.966 72.500 C 133.787 72.500,133.944 72.474,134.172 72.141 C 134.306 71.943,134.548 71.664,134.708 71.520 C 135.051 71.214,135.175 27.039,134.833 27.250 C 134.742 27.307,134.667 27.268,134.667 27.165 C 134.667 26.609,134.204 26.500,131.845 26.500 C 130.393 26.500,129.500 26.563,129.500 26.667 M303.127 47.084 C 308.624 48.380,312.295 55.372,310.915 61.917 C 310.365 64.525,307.859 67.621,307.183 66.527 C 307.107 66.403,306.705 66.526,305.959 66.901 C 305.348 67.209,304.583 67.510,304.258 67.571 C 303.933 67.632,303.667 67.753,303.667 67.841 C 303.667 67.928,303.254 68.000,302.750 68.000 C 302.246 68.000,301.833 67.926,301.833 67.835 C 301.833 67.745,301.532 67.622,301.163 67.563 C 300.794 67.504,300.452 67.391,300.403 67.311 C 300.354 67.232,300.168 67.167,299.990 67.167 C 299.812 67.167,299.667 67.092,299.667 67.000 C 299.667 66.908,299.517 66.833,299.333 66.833 C 299.150 66.833,299.000 66.758,299.000 66.667 C 299.000 66.575,298.883 66.500,298.739 66.500 C 298.596 66.500,298.113 66.125,297.667 65.667 C 297.220 65.208,296.807 64.833,296.749 64.833 C 296.529 64.833,296.167 64.345,296.167 64.049 C 296.167 63.879,296.017 63.632,295.833 63.500 C 295.650 63.368,295.500 63.126,295.500 62.963 C 295.500 62.800,295.425 62.667,295.333 62.667 C 295.242 62.667,295.167 62.517,295.167 62.333 C 295.167 62.150,295.092 62.000,295.000 62.000 C 294.908 62.000,294.833 61.775,294.833 61.500 C 294.833 61.225,294.758 61.000,294.667 61.000 C 294.575 61.000,294.500 60.737,294.500 60.417 C 294.500 60.096,294.425 59.833,294.333 59.833 C 294.242 59.833,294.167 59.458,294.167 59.000 C 294.167 58.542,294.092 58.167,294.000 58.167 C 293.901 58.167,293.833 57.531,293.833 56.593 C 293.833 55.724,293.908 54.974,294.000 54.917 C 294.092 54.860,294.167 54.443,294.167 53.990 C 294.167 53.537,294.242 53.167,294.333 53.167 C 294.425 53.167,294.500 52.942,294.500 52.667 C 294.500 52.392,294.575 52.167,294.667 52.167 C 294.758 52.167,294.833 52.017,294.833 51.833 C 294.833 51.650,294.908 51.500,295.000 51.500 C 295.092 51.500,295.167 51.387,295.167 51.250 C 295.167 51.112,295.242 51.000,295.333 51.000 C 295.425 51.000,295.500 50.885,295.500 50.744 C 295.500 50.435,296.569 49.333,296.869 49.333 C 297.142 49.332,298.167 48.463,298.167 48.232 C 298.167 47.230,300.983 46.579,303.127 47.084 M46.274 51.583 C 46.136 51.721,45.929 51.833,45.813 51.833 C 45.695 51.833,45.745 51.726,45.926 51.589 C 46.351 51.268,46.593 51.264,46.274 51.583 M45.274 52.250 C 45.136 52.387,44.906 52.500,44.762 52.500 C 44.618 52.500,44.500 52.575,44.500 52.667 C 44.500 52.758,44.382 52.833,44.238 52.833 C 44.005 52.833,44.004 52.806,44.226 52.583 C 44.364 52.446,44.594 52.333,44.738 52.333 C 44.882 52.333,45.000 52.258,45.000 52.167 C 45.000 52.075,45.118 52.000,45.262 52.000 C 45.495 52.000,45.496 52.028,45.274 52.250 M41.855 54.212 C 41.584 54.483,41.429 54.229,41.692 53.944 C 41.816 53.809,41.944 53.773,41.977 53.864 C 42.010 53.955,41.955 54.111,41.855 54.212 M41.333 54.500 C 41.333 54.592,41.179 54.667,40.990 54.667 C 40.801 54.667,40.693 54.592,40.750 54.500 C 40.807 54.408,40.961 54.333,41.093 54.333 C 41.225 54.333,41.333 54.408,41.333 54.500 M39.607 55.417 C 39.470 55.554,39.239 55.667,39.095 55.667 C 38.951 55.667,38.833 55.742,38.833 55.833 C 38.833 55.925,38.706 56.000,38.550 56.000 C 38.214 56.000,38.419 55.749,39.028 55.414 C 39.598 55.099,39.923 55.101,39.607 55.417 M37.940 56.417 C 37.803 56.554,37.601 56.667,37.491 56.667 C 37.341 56.667,37.343 56.606,37.500 56.417 C 37.614 56.279,37.816 56.167,37.949 56.167 C 38.156 56.167,38.155 56.202,37.940 56.417 M31.333 58.095 C 31.333 58.368,31.869 58.687,32.129 58.570 C 32.378 58.459,32.367 58.433,32.042 58.376 C 31.835 58.340,31.667 58.240,31.667 58.155 C 31.667 58.070,31.592 58.000,31.500 58.000 C 31.408 58.000,31.333 58.043,31.333 58.095 M30.782 59.819 C 30.483 60.419,30.544 60.461,31.039 59.999 C 31.296 59.760,31.347 59.614,31.218 59.485 C 31.090 59.356,30.966 59.451,30.782 59.819 " stroke="none" fill="#f21911" fill-rule="evenodd"></path></g></svg>